<mxfile host="Electron" modified="2024-03-09T19:28:51.969Z" agent="Mozilla/5.0 (Macintosh; Intel Mac OS X 10_15_7) AppleWebKit/537.36 (KHTML, like Gecko) draw.io/23.1.5 Chrome/120.0.6099.109 Electron/28.1.0 Safari/537.36" etag="bOAP496StLLQl336LNcv" version="23.1.5" type="device">
  <diagram name="Page-1" id="13e1069c-82ec-6db2-03f1-153e76fe0fe0">
    <mxGraphModel dx="2527" dy="734" grid="1" gridSize="10" guides="1" tooltips="1" connect="1" arrows="1" fold="1" page="1" pageScale="1" pageWidth="827" pageHeight="1169" background="none" math="0" shadow="0">
      <root>
        <mxCell id="0" />
        <mxCell id="1" parent="0" />
        <mxCell id="q7yPuHwjgGvsOjUBlJRA-1" value="&lt;u&gt;:MainWindow&lt;/u&gt;" style="shape=umlLifeline;perimeter=lifelinePerimeter;whiteSpace=wrap;html=1;container=1;dropTarget=0;collapsible=0;recursiveResize=0;outlineConnect=0;portConstraint=eastwest;newEdgeStyle={&quot;curved&quot;:0,&quot;rounded&quot;:0};" parent="1" vertex="1">
          <mxGeometry x="-610" y="20" width="100" height="4650" as="geometry" />
        </mxCell>
        <mxCell id="q7yPuHwjgGvsOjUBlJRA-2" value="" style="html=1;points=[[0,0,0,0,5],[0,1,0,0,-5],[1,0,0,0,5],[1,1,0,0,-5]];perimeter=orthogonalPerimeter;outlineConnect=0;targetShapes=umlLifeline;portConstraint=eastwest;newEdgeStyle={&quot;curved&quot;:0,&quot;rounded&quot;:0};" parent="q7yPuHwjgGvsOjUBlJRA-1" vertex="1">
          <mxGeometry x="45" y="70" width="10" height="4540" as="geometry" />
        </mxCell>
        <mxCell id="q7yPuHwjgGvsOjUBlJRA-3" value="" style="html=1;points=[[0,0,0,0,5],[0,1,0,0,-5],[1,0,0,0,5],[1,1,0,0,-5]];perimeter=orthogonalPerimeter;outlineConnect=0;targetShapes=umlLifeline;portConstraint=eastwest;newEdgeStyle={&quot;curved&quot;:0,&quot;rounded&quot;:0};" parent="q7yPuHwjgGvsOjUBlJRA-1" vertex="1">
          <mxGeometry x="50" y="130" width="10" height="130" as="geometry" />
        </mxCell>
        <mxCell id="q7yPuHwjgGvsOjUBlJRA-4" value="" style="html=1;points=[[0,0,0,0,5],[0,1,0,0,-5],[1,0,0,0,5],[1,1,0,0,-5]];perimeter=orthogonalPerimeter;outlineConnect=0;targetShapes=umlLifeline;portConstraint=eastwest;newEdgeStyle={&quot;curved&quot;:0,&quot;rounded&quot;:0};" parent="q7yPuHwjgGvsOjUBlJRA-1" vertex="1">
          <mxGeometry x="50" y="520" width="10" height="40" as="geometry" />
        </mxCell>
        <mxCell id="q7yPuHwjgGvsOjUBlJRA-5" value="" style="html=1;points=[[0,0,0,0,5],[0,1,0,0,-5],[1,0,0,0,5],[1,1,0,0,-5]];perimeter=orthogonalPerimeter;outlineConnect=0;targetShapes=umlLifeline;portConstraint=eastwest;newEdgeStyle={&quot;curved&quot;:0,&quot;rounded&quot;:0};" parent="q7yPuHwjgGvsOjUBlJRA-1" vertex="1">
          <mxGeometry x="50" y="1150" width="10" height="80" as="geometry" />
        </mxCell>
        <mxCell id="q7yPuHwjgGvsOjUBlJRA-6" value="cancelIlluminate(upButton)" style="html=1;align=left;spacingLeft=2;endArrow=block;rounded=0;edgeStyle=orthogonalEdgeStyle;curved=0;rounded=0;" parent="q7yPuHwjgGvsOjUBlJRA-1" target="q7yPuHwjgGvsOjUBlJRA-5" edge="1">
          <mxGeometry relative="1" as="geometry">
            <mxPoint x="60" y="1180" as="sourcePoint" />
            <Array as="points">
              <mxPoint x="85" y="1180" />
              <mxPoint x="85" y="1210" />
            </Array>
            <mxPoint x="60" y="1210.0000000000002" as="targetPoint" />
          </mxGeometry>
        </mxCell>
        <mxCell id="q7yPuHwjgGvsOjUBlJRA-7" value="illuminate(upButton)" style="html=1;align=left;spacingLeft=2;endArrow=block;rounded=0;edgeStyle=orthogonalEdgeStyle;curved=0;rounded=0;" parent="q7yPuHwjgGvsOjUBlJRA-1" source="q7yPuHwjgGvsOjUBlJRA-3" target="q7yPuHwjgGvsOjUBlJRA-3" edge="1">
          <mxGeometry relative="1" as="geometry">
            <mxPoint x="55" y="164" as="sourcePoint" />
            <Array as="points">
              <mxPoint x="85" y="164" />
              <mxPoint x="85" y="194" />
            </Array>
            <mxPoint x="55" y="194" as="targetPoint" />
          </mxGeometry>
        </mxCell>
        <mxCell id="q7yPuHwjgGvsOjUBlJRA-8" value="" style="html=1;points=[[0,0,0,0,5],[0,1,0,0,-5],[1,0,0,0,5],[1,1,0,0,-5]];perimeter=orthogonalPerimeter;outlineConnect=0;targetShapes=umlLifeline;portConstraint=eastwest;newEdgeStyle={&quot;curved&quot;:0,&quot;rounded&quot;:0};" parent="q7yPuHwjgGvsOjUBlJRA-1" vertex="1">
          <mxGeometry x="50" y="1610" width="10" height="140" as="geometry" />
        </mxCell>
        <mxCell id="q7yPuHwjgGvsOjUBlJRA-9" value="illuminate(upButton)" style="html=1;align=left;spacingLeft=2;endArrow=block;rounded=0;edgeStyle=orthogonalEdgeStyle;curved=0;rounded=0;" parent="q7yPuHwjgGvsOjUBlJRA-1" target="q7yPuHwjgGvsOjUBlJRA-8" edge="1">
          <mxGeometry relative="1" as="geometry">
            <mxPoint x="60" y="1690" as="sourcePoint" />
            <Array as="points">
              <mxPoint x="90" y="1690" />
              <mxPoint x="90" y="1720" />
            </Array>
            <mxPoint x="65" y="1720" as="targetPoint" />
          </mxGeometry>
        </mxCell>
        <mxCell id="q7yPuHwjgGvsOjUBlJRA-10" value="" style="html=1;points=[[0,0,0,0,5],[0,1,0,0,-5],[1,0,0,0,5],[1,1,0,0,-5]];perimeter=orthogonalPerimeter;outlineConnect=0;targetShapes=umlLifeline;portConstraint=eastwest;newEdgeStyle={&quot;curved&quot;:0,&quot;rounded&quot;:0};" parent="q7yPuHwjgGvsOjUBlJRA-1" vertex="1">
          <mxGeometry x="50" y="1910" width="10" height="40" as="geometry" />
        </mxCell>
        <mxCell id="q7yPuHwjgGvsOjUBlJRA-11" value="" style="html=1;points=[[0,0,0,0,5],[0,1,0,0,-5],[1,0,0,0,5],[1,1,0,0,-5]];perimeter=orthogonalPerimeter;outlineConnect=0;targetShapes=umlLifeline;portConstraint=eastwest;newEdgeStyle={&quot;curved&quot;:0,&quot;rounded&quot;:0};" parent="q7yPuHwjgGvsOjUBlJRA-1" vertex="1">
          <mxGeometry x="50" y="2650" width="10" height="80" as="geometry" />
        </mxCell>
        <mxCell id="q7yPuHwjgGvsOjUBlJRA-12" value="cancelIlluminate(upButton)" style="html=1;align=left;spacingLeft=2;endArrow=block;rounded=0;edgeStyle=orthogonalEdgeStyle;curved=0;rounded=0;" parent="q7yPuHwjgGvsOjUBlJRA-1" source="q7yPuHwjgGvsOjUBlJRA-11" target="q7yPuHwjgGvsOjUBlJRA-11" edge="1">
          <mxGeometry relative="1" as="geometry">
            <mxPoint x="60" y="2640" as="sourcePoint" />
            <Array as="points">
              <mxPoint x="85" y="2670" />
              <mxPoint x="85" y="2700" />
            </Array>
            <mxPoint x="60" y="2670" as="targetPoint" />
          </mxGeometry>
        </mxCell>
        <mxCell id="q7yPuHwjgGvsOjUBlJRA-13" value="" style="html=1;points=[[0,0,0,0,5],[0,1,0,0,-5],[1,0,0,0,5],[1,1,0,0,-5]];perimeter=orthogonalPerimeter;outlineConnect=0;targetShapes=umlLifeline;portConstraint=eastwest;newEdgeStyle={&quot;curved&quot;:0,&quot;rounded&quot;:0};" parent="q7yPuHwjgGvsOjUBlJRA-1" vertex="1">
          <mxGeometry x="51" y="3140" width="10" height="140" as="geometry" />
        </mxCell>
        <mxCell id="q7yPuHwjgGvsOjUBlJRA-14" value="illuminate(downButton)" style="html=1;align=left;spacingLeft=2;endArrow=block;rounded=0;edgeStyle=orthogonalEdgeStyle;curved=0;rounded=0;" parent="q7yPuHwjgGvsOjUBlJRA-1" target="q7yPuHwjgGvsOjUBlJRA-13" edge="1">
          <mxGeometry relative="1" as="geometry">
            <mxPoint x="61" y="3220" as="sourcePoint" />
            <Array as="points">
              <mxPoint x="91" y="3220" />
              <mxPoint x="91" y="3250" />
            </Array>
            <mxPoint x="66" y="3250" as="targetPoint" />
          </mxGeometry>
        </mxCell>
        <mxCell id="q7yPuHwjgGvsOjUBlJRA-15" value="" style="html=1;points=[[0,0,0,0,5],[0,1,0,0,-5],[1,0,0,0,5],[1,1,0,0,-5]];perimeter=orthogonalPerimeter;outlineConnect=0;targetShapes=umlLifeline;portConstraint=eastwest;newEdgeStyle={&quot;curved&quot;:0,&quot;rounded&quot;:0};" parent="q7yPuHwjgGvsOjUBlJRA-1" vertex="1">
          <mxGeometry x="51" y="3440" width="10" height="40" as="geometry" />
        </mxCell>
        <mxCell id="q7yPuHwjgGvsOjUBlJRA-16" value="" style="html=1;points=[[0,0,0,0,5],[0,1,0,0,-5],[1,0,0,0,5],[1,1,0,0,-5]];perimeter=orthogonalPerimeter;outlineConnect=0;targetShapes=umlLifeline;portConstraint=eastwest;newEdgeStyle={&quot;curved&quot;:0,&quot;rounded&quot;:0};" parent="q7yPuHwjgGvsOjUBlJRA-1" vertex="1">
          <mxGeometry x="50.5" y="4090" width="10" height="80" as="geometry" />
        </mxCell>
        <mxCell id="q7yPuHwjgGvsOjUBlJRA-17" value="cancelIlluminate(downButton)" style="html=1;align=left;spacingLeft=2;endArrow=block;rounded=0;edgeStyle=orthogonalEdgeStyle;curved=0;rounded=0;" parent="q7yPuHwjgGvsOjUBlJRA-1" source="q7yPuHwjgGvsOjUBlJRA-16" target="q7yPuHwjgGvsOjUBlJRA-16" edge="1">
          <mxGeometry relative="1" as="geometry">
            <mxPoint x="60.5" y="4080" as="sourcePoint" />
            <Array as="points">
              <mxPoint x="85.5" y="4110" />
              <mxPoint x="85.5" y="4140" />
            </Array>
            <mxPoint x="60.5" y="4110" as="targetPoint" />
          </mxGeometry>
        </mxCell>
        <mxCell id="q7yPuHwjgGvsOjUBlJRA-18" value="passenger1" style="shape=umlLifeline;perimeter=lifelinePerimeter;whiteSpace=wrap;html=1;container=1;dropTarget=0;collapsible=0;recursiveResize=0;outlineConnect=0;portConstraint=eastwest;newEdgeStyle={&quot;curved&quot;:0,&quot;rounded&quot;:0};" parent="1" vertex="1">
          <mxGeometry x="280" y="20" width="100" height="1560" as="geometry" />
        </mxCell>
        <mxCell id="q7yPuHwjgGvsOjUBlJRA-19" value="" style="html=1;points=[[0,0,0,0,5],[0,1,0,0,-5],[1,0,0,0,5],[1,1,0,0,-5]];perimeter=orthogonalPerimeter;outlineConnect=0;targetShapes=umlLifeline;portConstraint=eastwest;newEdgeStyle={&quot;curved&quot;:0,&quot;rounded&quot;:0};" parent="q7yPuHwjgGvsOjUBlJRA-18" vertex="1">
          <mxGeometry x="45" y="130" width="10" height="30" as="geometry" />
        </mxCell>
        <mxCell id="q7yPuHwjgGvsOjUBlJRA-20" value="" style="html=1;points=[[0,0,0,0,5],[0,1,0,0,-5],[1,0,0,0,5],[1,1,0,0,-5]];perimeter=orthogonalPerimeter;outlineConnect=0;targetShapes=umlLifeline;portConstraint=eastwest;newEdgeStyle={&quot;curved&quot;:0,&quot;rounded&quot;:0};" parent="q7yPuHwjgGvsOjUBlJRA-18" vertex="1">
          <mxGeometry x="45" y="370" width="10" height="40" as="geometry" />
        </mxCell>
        <mxCell id="q7yPuHwjgGvsOjUBlJRA-21" value="" style="html=1;points=[[0,0,0,0,5],[0,1,0,0,-5],[1,0,0,0,5],[1,1,0,0,-5]];perimeter=orthogonalPerimeter;outlineConnect=0;targetShapes=umlLifeline;portConstraint=eastwest;newEdgeStyle={&quot;curved&quot;:0,&quot;rounded&quot;:0};" parent="q7yPuHwjgGvsOjUBlJRA-18" vertex="1">
          <mxGeometry x="45" y="550" width="10" height="50" as="geometry" />
        </mxCell>
        <mxCell id="q7yPuHwjgGvsOjUBlJRA-22" value="" style="html=1;points=[[0,0,0,0,5],[0,1,0,0,-5],[1,0,0,0,5],[1,1,0,0,-5]];perimeter=orthogonalPerimeter;outlineConnect=0;targetShapes=umlLifeline;portConstraint=eastwest;newEdgeStyle={&quot;curved&quot;:0,&quot;rounded&quot;:0};" parent="q7yPuHwjgGvsOjUBlJRA-18" vertex="1">
          <mxGeometry x="45" y="1040" width="10" height="40" as="geometry" />
        </mxCell>
        <mxCell id="q7yPuHwjgGvsOjUBlJRA-23" value="" style="html=1;points=[[0,0,0,0,5],[0,1,0,0,-5],[1,0,0,0,5],[1,1,0,0,-5]];perimeter=orthogonalPerimeter;outlineConnect=0;targetShapes=umlLifeline;portConstraint=eastwest;newEdgeStyle={&quot;curved&quot;:0,&quot;rounded&quot;:0};" parent="q7yPuHwjgGvsOjUBlJRA-18" vertex="1">
          <mxGeometry x="45" y="1330" width="10" height="50" as="geometry" />
        </mxCell>
        <mxCell id="q7yPuHwjgGvsOjUBlJRA-24" value="ECS" style="shape=umlLifeline;perimeter=lifelinePerimeter;whiteSpace=wrap;html=1;container=1;dropTarget=0;collapsible=0;recursiveResize=0;outlineConnect=0;portConstraint=eastwest;newEdgeStyle={&quot;curved&quot;:0,&quot;rounded&quot;:0};" parent="1" vertex="1">
          <mxGeometry x="620" y="20" width="100" height="4640" as="geometry" />
        </mxCell>
        <mxCell id="q7yPuHwjgGvsOjUBlJRA-25" value="" style="html=1;points=[[0,0,0,0,5],[0,1,0,0,-5],[1,0,0,0,5],[1,1,0,0,-5]];perimeter=orthogonalPerimeter;outlineConnect=0;targetShapes=umlLifeline;portConstraint=eastwest;newEdgeStyle={&quot;curved&quot;:0,&quot;rounded&quot;:0};" parent="q7yPuHwjgGvsOjUBlJRA-24" vertex="1">
          <mxGeometry x="45" y="70" width="10" height="4330" as="geometry" />
        </mxCell>
        <mxCell id="q7yPuHwjgGvsOjUBlJRA-26" value="" style="html=1;points=[[0,0,0,0,5],[0,1,0,0,-5],[1,0,0,0,5],[1,1,0,0,-5]];perimeter=orthogonalPerimeter;outlineConnect=0;targetShapes=umlLifeline;portConstraint=eastwest;newEdgeStyle={&quot;curved&quot;:0,&quot;rounded&quot;:0};" parent="q7yPuHwjgGvsOjUBlJRA-24" vertex="1">
          <mxGeometry x="48" y="200" width="10" height="40" as="geometry" />
        </mxCell>
        <mxCell id="q7yPuHwjgGvsOjUBlJRA-27" value="moveIdle()" style="html=1;align=left;spacingLeft=2;endArrow=block;rounded=0;edgeStyle=orthogonalEdgeStyle;curved=0;rounded=0;" parent="q7yPuHwjgGvsOjUBlJRA-24" target="q7yPuHwjgGvsOjUBlJRA-26" edge="1">
          <mxGeometry relative="1" as="geometry">
            <mxPoint x="55" y="180" as="sourcePoint" />
            <Array as="points">
              <mxPoint x="85" y="210" />
            </Array>
          </mxGeometry>
        </mxCell>
        <mxCell id="q7yPuHwjgGvsOjUBlJRA-28" value="" style="html=1;points=[[0,0,0,0,5],[0,1,0,0,-5],[1,0,0,0,5],[1,1,0,0,-5]];perimeter=orthogonalPerimeter;outlineConnect=0;targetShapes=umlLifeline;portConstraint=eastwest;newEdgeStyle={&quot;curved&quot;:0,&quot;rounded&quot;:0};" parent="q7yPuHwjgGvsOjUBlJRA-24" vertex="1">
          <mxGeometry x="49" y="260" width="10" height="60" as="geometry" />
        </mxCell>
        <mxCell id="q7yPuHwjgGvsOjUBlJRA-29" value="moveElevatorToFloor(elevator1, floor1)" style="html=1;align=left;spacingLeft=2;endArrow=block;rounded=0;edgeStyle=orthogonalEdgeStyle;curved=0;rounded=0;exitX=1;exitY=1;exitDx=0;exitDy=-5;exitPerimeter=0;" parent="q7yPuHwjgGvsOjUBlJRA-24" source="q7yPuHwjgGvsOjUBlJRA-26" target="q7yPuHwjgGvsOjUBlJRA-28" edge="1">
          <mxGeometry relative="1" as="geometry">
            <mxPoint x="50" y="240" as="sourcePoint" />
            <Array as="points">
              <mxPoint x="80" y="235" />
              <mxPoint x="80" y="270" />
            </Array>
          </mxGeometry>
        </mxCell>
        <mxCell id="q7yPuHwjgGvsOjUBlJRA-30" value="" style="html=1;points=[[0,0,0,0,5],[0,1,0,0,-5],[1,0,0,0,5],[1,1,0,0,-5]];perimeter=orthogonalPerimeter;outlineConnect=0;targetShapes=umlLifeline;portConstraint=eastwest;newEdgeStyle={&quot;curved&quot;:0,&quot;rounded&quot;:0};" parent="q7yPuHwjgGvsOjUBlJRA-24" vertex="1">
          <mxGeometry x="49" y="340" width="10" height="40" as="geometry" />
        </mxCell>
        <mxCell id="q7yPuHwjgGvsOjUBlJRA-31" value="movePassenger()" style="html=1;align=left;spacingLeft=2;endArrow=block;rounded=0;edgeStyle=orthogonalEdgeStyle;curved=0;rounded=0;" parent="q7yPuHwjgGvsOjUBlJRA-24" source="q7yPuHwjgGvsOjUBlJRA-25" target="q7yPuHwjgGvsOjUBlJRA-30" edge="1">
          <mxGeometry relative="1" as="geometry">
            <mxPoint x="60" y="320" as="sourcePoint" />
            <Array as="points">
              <mxPoint x="80" y="330" />
              <mxPoint x="80" y="360" />
            </Array>
          </mxGeometry>
        </mxCell>
        <mxCell id="q7yPuHwjgGvsOjUBlJRA-32" value="" style="html=1;points=[[0,0,0,0,5],[0,1,0,0,-5],[1,0,0,0,5],[1,1,0,0,-5]];perimeter=orthogonalPerimeter;outlineConnect=0;targetShapes=umlLifeline;portConstraint=eastwest;newEdgeStyle={&quot;curved&quot;:0,&quot;rounded&quot;:0};" parent="q7yPuHwjgGvsOjUBlJRA-24" vertex="1">
          <mxGeometry x="50" y="620" width="10" height="640" as="geometry" />
        </mxCell>
        <mxCell id="q7yPuHwjgGvsOjUBlJRA-33" value="handleCarRequest()" style="html=1;align=left;spacingLeft=2;endArrow=block;rounded=0;edgeStyle=orthogonalEdgeStyle;curved=0;rounded=0;" parent="q7yPuHwjgGvsOjUBlJRA-24" target="q7yPuHwjgGvsOjUBlJRA-32" edge="1">
          <mxGeometry relative="1" as="geometry">
            <mxPoint x="55" y="600" as="sourcePoint" />
            <Array as="points">
              <mxPoint x="85" y="630" />
            </Array>
          </mxGeometry>
        </mxCell>
        <mxCell id="q7yPuHwjgGvsOjUBlJRA-34" value="moveElevatorToFloor(elevator1, floor2)" style="html=1;align=left;spacingLeft=2;endArrow=block;rounded=0;edgeStyle=orthogonalEdgeStyle;curved=0;rounded=0;" parent="q7yPuHwjgGvsOjUBlJRA-24" edge="1">
          <mxGeometry relative="1" as="geometry">
            <mxPoint x="60" y="750" as="sourcePoint" />
            <Array as="points">
              <mxPoint x="85" y="780" />
            </Array>
            <mxPoint x="60" y="780" as="targetPoint" />
          </mxGeometry>
        </mxCell>
        <mxCell id="q7yPuHwjgGvsOjUBlJRA-35" value="removeFloorRequest({floor1, UP})" style="html=1;align=left;spacingLeft=2;endArrow=block;rounded=0;edgeStyle=orthogonalEdgeStyle;curved=0;rounded=0;" parent="q7yPuHwjgGvsOjUBlJRA-24" edge="1">
          <mxGeometry relative="1" as="geometry">
            <mxPoint x="60" y="280" as="sourcePoint" />
            <Array as="points">
              <mxPoint x="85" y="310" />
            </Array>
            <mxPoint x="60" y="310" as="targetPoint" />
          </mxGeometry>
        </mxCell>
        <mxCell id="q7yPuHwjgGvsOjUBlJRA-36" value="removeCarRequest({elevator1, floor2})" style="html=1;align=left;spacingLeft=2;endArrow=block;rounded=0;edgeStyle=orthogonalEdgeStyle;curved=0;rounded=0;" parent="q7yPuHwjgGvsOjUBlJRA-24" target="q7yPuHwjgGvsOjUBlJRA-32" edge="1">
          <mxGeometry relative="1" as="geometry">
            <mxPoint x="60" y="1170" as="sourcePoint" />
            <Array as="points">
              <mxPoint x="90" y="1170" />
              <mxPoint x="90" y="1200" />
            </Array>
            <mxPoint x="65" y="1200" as="targetPoint" />
          </mxGeometry>
        </mxCell>
        <mxCell id="q7yPuHwjgGvsOjUBlJRA-37" value="" style="html=1;points=[[0,0,0,0,5],[0,1,0,0,-5],[1,0,0,0,5],[1,1,0,0,-5]];perimeter=orthogonalPerimeter;outlineConnect=0;targetShapes=umlLifeline;portConstraint=eastwest;newEdgeStyle={&quot;curved&quot;:0,&quot;rounded&quot;:0};" parent="q7yPuHwjgGvsOjUBlJRA-24" vertex="1">
          <mxGeometry x="50" y="1300" width="10" height="40" as="geometry" />
        </mxCell>
        <mxCell id="q7yPuHwjgGvsOjUBlJRA-38" value="movePassenger()" style="html=1;align=left;spacingLeft=2;endArrow=block;rounded=0;edgeStyle=orthogonalEdgeStyle;curved=0;rounded=0;" parent="q7yPuHwjgGvsOjUBlJRA-24" target="q7yPuHwjgGvsOjUBlJRA-37" edge="1">
          <mxGeometry relative="1" as="geometry">
            <mxPoint x="55" y="1280" as="sourcePoint" />
            <Array as="points">
              <mxPoint x="85" y="1310" />
            </Array>
          </mxGeometry>
        </mxCell>
        <mxCell id="q7yPuHwjgGvsOjUBlJRA-39" value="handleCarRequest()" style="html=1;align=left;spacingLeft=2;endArrow=block;rounded=0;edgeStyle=orthogonalEdgeStyle;curved=0;rounded=0;" parent="q7yPuHwjgGvsOjUBlJRA-24" target="q7yPuHwjgGvsOjUBlJRA-40" edge="1">
          <mxGeometry relative="1" as="geometry">
            <mxPoint x="54" y="1990" as="sourcePoint" />
            <Array as="points">
              <mxPoint x="84" y="2020" />
            </Array>
          </mxGeometry>
        </mxCell>
        <mxCell id="q7yPuHwjgGvsOjUBlJRA-40" value="" style="html=1;points=[[0,0,0,0,5],[0,1,0,0,-5],[1,0,0,0,5],[1,1,0,0,-5]];perimeter=orthogonalPerimeter;outlineConnect=0;targetShapes=umlLifeline;portConstraint=eastwest;newEdgeStyle={&quot;curved&quot;:0,&quot;rounded&quot;:0};" parent="q7yPuHwjgGvsOjUBlJRA-24" vertex="1">
          <mxGeometry x="49" y="2010" width="10" height="700" as="geometry" />
        </mxCell>
        <mxCell id="q7yPuHwjgGvsOjUBlJRA-41" value="moveElevatorToFloor(elevator2, floor4)" style="html=1;align=left;spacingLeft=2;endArrow=block;rounded=0;edgeStyle=orthogonalEdgeStyle;curved=0;rounded=0;" parent="q7yPuHwjgGvsOjUBlJRA-24" edge="1">
          <mxGeometry relative="1" as="geometry">
            <mxPoint x="60" y="2150" as="sourcePoint" />
            <Array as="points">
              <mxPoint x="85" y="2180" />
            </Array>
            <mxPoint x="60" y="2180" as="targetPoint" />
          </mxGeometry>
        </mxCell>
        <mxCell id="q7yPuHwjgGvsOjUBlJRA-42" value="removeCarRequest({elevator2, floor4})" style="html=1;align=left;spacingLeft=2;endArrow=block;rounded=0;edgeStyle=orthogonalEdgeStyle;curved=0;rounded=0;" parent="q7yPuHwjgGvsOjUBlJRA-24" edge="1">
          <mxGeometry relative="1" as="geometry">
            <mxPoint x="58" y="2660" as="sourcePoint" />
            <Array as="points">
              <mxPoint x="88" y="2660" />
              <mxPoint x="88" y="2690" />
            </Array>
            <mxPoint x="58" y="2690" as="targetPoint" />
          </mxGeometry>
        </mxCell>
        <mxCell id="q7yPuHwjgGvsOjUBlJRA-43" value="" style="html=1;points=[[0,0,0,0,5],[0,1,0,0,-5],[1,0,0,0,5],[1,1,0,0,-5]];perimeter=orthogonalPerimeter;outlineConnect=0;targetShapes=umlLifeline;portConstraint=eastwest;newEdgeStyle={&quot;curved&quot;:0,&quot;rounded&quot;:0};" parent="q7yPuHwjgGvsOjUBlJRA-24" vertex="1">
          <mxGeometry x="50" y="2760" width="10" height="40" as="geometry" />
        </mxCell>
        <mxCell id="q7yPuHwjgGvsOjUBlJRA-44" value="movePassenger()" style="html=1;align=left;spacingLeft=2;endArrow=block;rounded=0;edgeStyle=orthogonalEdgeStyle;curved=0;rounded=0;" parent="q7yPuHwjgGvsOjUBlJRA-24" source="q7yPuHwjgGvsOjUBlJRA-25" target="q7yPuHwjgGvsOjUBlJRA-43" edge="1">
          <mxGeometry relative="1" as="geometry">
            <mxPoint x="60" y="2740" as="sourcePoint" />
            <Array as="points">
              <mxPoint x="90" y="2740" />
              <mxPoint x="90" y="2780" />
            </Array>
          </mxGeometry>
        </mxCell>
        <mxCell id="q7yPuHwjgGvsOjUBlJRA-45" value="handleCarRequest()" style="html=1;align=left;spacingLeft=2;endArrow=block;rounded=0;edgeStyle=orthogonalEdgeStyle;curved=0;rounded=0;" parent="q7yPuHwjgGvsOjUBlJRA-24" target="q7yPuHwjgGvsOjUBlJRA-46" edge="1">
          <mxGeometry relative="1" as="geometry">
            <mxPoint x="55" y="3520" as="sourcePoint" />
            <Array as="points">
              <mxPoint x="85" y="3550" />
            </Array>
          </mxGeometry>
        </mxCell>
        <mxCell id="q7yPuHwjgGvsOjUBlJRA-46" value="" style="html=1;points=[[0,0,0,0,5],[0,1,0,0,-5],[1,0,0,0,5],[1,1,0,0,-5]];perimeter=orthogonalPerimeter;outlineConnect=0;targetShapes=umlLifeline;portConstraint=eastwest;newEdgeStyle={&quot;curved&quot;:0,&quot;rounded&quot;:0};" parent="q7yPuHwjgGvsOjUBlJRA-24" vertex="1">
          <mxGeometry x="50" y="3540" width="10" height="780" as="geometry" />
        </mxCell>
        <mxCell id="q7yPuHwjgGvsOjUBlJRA-47" value="moveElevatorToFloor(elevator3, floor6)" style="html=1;align=left;spacingLeft=2;endArrow=block;rounded=0;edgeStyle=orthogonalEdgeStyle;curved=0;rounded=0;" parent="q7yPuHwjgGvsOjUBlJRA-24" edge="1">
          <mxGeometry relative="1" as="geometry">
            <mxPoint x="61" y="3680" as="sourcePoint" />
            <Array as="points">
              <mxPoint x="86" y="3710" />
            </Array>
            <mxPoint x="61" y="3710" as="targetPoint" />
          </mxGeometry>
        </mxCell>
        <mxCell id="q7yPuHwjgGvsOjUBlJRA-48" value="removeCarRequest({elevator3, floor6})" style="html=1;align=left;spacingLeft=2;endArrow=block;rounded=0;edgeStyle=orthogonalEdgeStyle;curved=0;rounded=0;" parent="q7yPuHwjgGvsOjUBlJRA-24" edge="1">
          <mxGeometry x="0.0111" relative="1" as="geometry">
            <mxPoint x="58.5" y="4110" as="sourcePoint" />
            <Array as="points">
              <mxPoint x="88.5" y="4110" />
              <mxPoint x="88.5" y="4140" />
            </Array>
            <mxPoint x="58.5" y="4140" as="targetPoint" />
            <mxPoint as="offset" />
          </mxGeometry>
        </mxCell>
        <mxCell id="q7yPuHwjgGvsOjUBlJRA-49" value="" style="html=1;points=[[0,0,0,0,5],[0,1,0,0,-5],[1,0,0,0,5],[1,1,0,0,-5]];perimeter=orthogonalPerimeter;outlineConnect=0;targetShapes=umlLifeline;portConstraint=eastwest;newEdgeStyle={&quot;curved&quot;:0,&quot;rounded&quot;:0};" parent="q7yPuHwjgGvsOjUBlJRA-24" vertex="1">
          <mxGeometry x="50.5" y="4200" width="10" height="40" as="geometry" />
        </mxCell>
        <mxCell id="q7yPuHwjgGvsOjUBlJRA-50" value="movePassenger()" style="html=1;align=left;spacingLeft=2;endArrow=block;rounded=0;edgeStyle=orthogonalEdgeStyle;curved=0;rounded=0;" parent="q7yPuHwjgGvsOjUBlJRA-24" target="q7yPuHwjgGvsOjUBlJRA-49" edge="1">
          <mxGeometry relative="1" as="geometry">
            <mxPoint x="55.5" y="4180" as="sourcePoint" />
            <Array as="points">
              <mxPoint x="90.5" y="4180" />
              <mxPoint x="90.5" y="4220" />
            </Array>
          </mxGeometry>
        </mxCell>
        <mxCell id="q7yPuHwjgGvsOjUBlJRA-51" value="" style="shape=umlLifeline;perimeter=lifelinePerimeter;whiteSpace=wrap;html=1;container=1;dropTarget=0;collapsible=0;recursiveResize=0;outlineConnect=0;portConstraint=eastwest;newEdgeStyle={&quot;curved&quot;:0,&quot;rounded&quot;:0};participant=umlActor;" parent="1" vertex="1">
          <mxGeometry x="-683" y="20" width="20" height="4600" as="geometry" />
        </mxCell>
        <mxCell id="q7yPuHwjgGvsOjUBlJRA-52" value="elevator1" style="shape=umlLifeline;perimeter=lifelinePerimeter;whiteSpace=wrap;html=1;container=1;dropTarget=0;collapsible=0;recursiveResize=0;outlineConnect=0;portConstraint=eastwest;newEdgeStyle={&quot;curved&quot;:0,&quot;rounded&quot;:0};" parent="1" vertex="1">
          <mxGeometry x="820" y="20" width="105" height="1420" as="geometry" />
        </mxCell>
        <mxCell id="q7yPuHwjgGvsOjUBlJRA-53" value="" style="html=1;points=[[0,0,0,0,5],[0,1,0,0,-5],[1,0,0,0,5],[1,1,0,0,-5]];perimeter=orthogonalPerimeter;outlineConnect=0;targetShapes=umlLifeline;portConstraint=eastwest;newEdgeStyle={&quot;curved&quot;:0,&quot;rounded&quot;:0};" parent="q7yPuHwjgGvsOjUBlJRA-52" vertex="1">
          <mxGeometry x="45" y="310" width="10" height="70" as="geometry" />
        </mxCell>
        <mxCell id="q7yPuHwjgGvsOjUBlJRA-54" value="ringBell()" style="html=1;align=left;spacingLeft=2;endArrow=block;rounded=0;edgeStyle=orthogonalEdgeStyle;curved=0;rounded=0;exitX=1;exitY=1;exitDx=0;exitDy=-5;exitPerimeter=0;" parent="q7yPuHwjgGvsOjUBlJRA-52" source="q7yPuHwjgGvsOjUBlJRA-53" edge="1">
          <mxGeometry x="0.379" relative="1" as="geometry">
            <mxPoint x="50" y="320" as="sourcePoint" />
            <Array as="points">
              <mxPoint x="80" y="315" />
              <mxPoint x="80" y="350" />
            </Array>
            <mxPoint x="55" y="350" as="targetPoint" />
            <mxPoint as="offset" />
          </mxGeometry>
        </mxCell>
        <mxCell id="q7yPuHwjgGvsOjUBlJRA-55" value="" style="html=1;points=[[0,0,0,0,5],[0,1,0,0,-5],[1,0,0,0,5],[1,1,0,0,-5]];perimeter=orthogonalPerimeter;outlineConnect=0;targetShapes=umlLifeline;portConstraint=eastwest;newEdgeStyle={&quot;curved&quot;:0,&quot;rounded&quot;:0};" parent="q7yPuHwjgGvsOjUBlJRA-52" vertex="1">
          <mxGeometry x="45" y="390" width="10" height="80" as="geometry" />
        </mxCell>
        <mxCell id="q7yPuHwjgGvsOjUBlJRA-56" value="closeDoor()" style="html=1;align=left;spacingLeft=2;endArrow=block;rounded=0;edgeStyle=orthogonalEdgeStyle;curved=0;rounded=0;" parent="q7yPuHwjgGvsOjUBlJRA-52" target="q7yPuHwjgGvsOjUBlJRA-55" edge="1">
          <mxGeometry relative="1" as="geometry">
            <mxPoint x="55" y="370" as="sourcePoint" />
            <Array as="points">
              <mxPoint x="80" y="370" />
              <mxPoint x="80" y="400" />
            </Array>
          </mxGeometry>
        </mxCell>
        <mxCell id="q7yPuHwjgGvsOjUBlJRA-57" style="edgeStyle=orthogonalEdgeStyle;rounded=0;orthogonalLoop=1;jettySize=auto;html=1;curved=0;elbow=horizontal;" parent="q7yPuHwjgGvsOjUBlJRA-52" source="q7yPuHwjgGvsOjUBlJRA-55" target="q7yPuHwjgGvsOjUBlJRA-55" edge="1">
          <mxGeometry relative="1" as="geometry">
            <Array as="points">
              <mxPoint x="80" y="430" />
            </Array>
          </mxGeometry>
        </mxCell>
        <mxCell id="q7yPuHwjgGvsOjUBlJRA-58" value="ringBell()" style="edgeLabel;html=1;align=center;verticalAlign=middle;resizable=0;points=[];" parent="q7yPuHwjgGvsOjUBlJRA-57" vertex="1" connectable="0">
          <mxGeometry x="0.3458" relative="1" as="geometry">
            <mxPoint x="32" y="-10" as="offset" />
          </mxGeometry>
        </mxCell>
        <mxCell id="q7yPuHwjgGvsOjUBlJRA-59" value="" style="html=1;points=[[0,0,0,0,5],[0,1,0,0,-5],[1,0,0,0,5],[1,1,0,0,-5]];perimeter=orthogonalPerimeter;outlineConnect=0;targetShapes=umlLifeline;portConstraint=eastwest;newEdgeStyle={&quot;curved&quot;:0,&quot;rounded&quot;:0};" parent="q7yPuHwjgGvsOjUBlJRA-52" vertex="1">
          <mxGeometry x="45" y="650" width="10" height="80" as="geometry" />
        </mxCell>
        <mxCell id="q7yPuHwjgGvsOjUBlJRA-60" value="" style="html=1;points=[[0,0,0,0,5],[0,1,0,0,-5],[1,0,0,0,5],[1,1,0,0,-5]];perimeter=orthogonalPerimeter;outlineConnect=0;targetShapes=umlLifeline;portConstraint=eastwest;newEdgeStyle={&quot;curved&quot;:0,&quot;rounded&quot;:0};" parent="q7yPuHwjgGvsOjUBlJRA-52" vertex="1">
          <mxGeometry x="45" y="800" width="10" height="20" as="geometry" />
        </mxCell>
        <mxCell id="q7yPuHwjgGvsOjUBlJRA-61" value="" style="html=1;points=[[0,0,0,0,5],[0,1,0,0,-5],[1,0,0,0,5],[1,1,0,0,-5]];perimeter=orthogonalPerimeter;outlineConnect=0;targetShapes=umlLifeline;portConstraint=eastwest;newEdgeStyle={&quot;curved&quot;:0,&quot;rounded&quot;:0};" parent="q7yPuHwjgGvsOjUBlJRA-52" vertex="1">
          <mxGeometry x="45" y="840" width="10" height="40" as="geometry" />
        </mxCell>
        <mxCell id="q7yPuHwjgGvsOjUBlJRA-62" value="" style="html=1;points=[[0,0,0,0,5],[0,1,0,0,-5],[1,0,0,0,5],[1,1,0,0,-5]];perimeter=orthogonalPerimeter;outlineConnect=0;targetShapes=umlLifeline;portConstraint=eastwest;newEdgeStyle={&quot;curved&quot;:0,&quot;rounded&quot;:0};" parent="q7yPuHwjgGvsOjUBlJRA-52" vertex="1">
          <mxGeometry x="45" y="900" width="10" height="30" as="geometry" />
        </mxCell>
        <mxCell id="q7yPuHwjgGvsOjUBlJRA-63" value="" style="html=1;points=[[0,0,0,0,5],[0,1,0,0,-5],[1,0,0,0,5],[1,1,0,0,-5]];perimeter=orthogonalPerimeter;outlineConnect=0;targetShapes=umlLifeline;portConstraint=eastwest;newEdgeStyle={&quot;curved&quot;:0,&quot;rounded&quot;:0};" parent="q7yPuHwjgGvsOjUBlJRA-52" vertex="1">
          <mxGeometry x="45" y="950" width="10" height="30" as="geometry" />
        </mxCell>
        <mxCell id="q7yPuHwjgGvsOjUBlJRA-64" value="" style="html=1;points=[[0,0,0,0,5],[0,1,0,0,-5],[1,0,0,0,5],[1,1,0,0,-5]];perimeter=orthogonalPerimeter;outlineConnect=0;targetShapes=umlLifeline;portConstraint=eastwest;newEdgeStyle={&quot;curved&quot;:0,&quot;rounded&quot;:0};" parent="q7yPuHwjgGvsOjUBlJRA-52" vertex="1">
          <mxGeometry x="47" y="1010" width="10" height="40" as="geometry" />
        </mxCell>
        <mxCell id="q7yPuHwjgGvsOjUBlJRA-65" value="currentFloorChanged(floor2)" style="html=1;align=left;spacingLeft=2;endArrow=block;rounded=0;edgeStyle=orthogonalEdgeStyle;curved=0;rounded=0;" parent="q7yPuHwjgGvsOjUBlJRA-52" target="q7yPuHwjgGvsOjUBlJRA-64" edge="1">
          <mxGeometry relative="1" as="geometry">
            <mxPoint x="52" y="990" as="sourcePoint" />
            <Array as="points">
              <mxPoint x="82" y="1020" />
            </Array>
          </mxGeometry>
        </mxCell>
        <mxCell id="q7yPuHwjgGvsOjUBlJRA-66" value="" style="html=1;points=[[0,0,0,0,5],[0,1,0,0,-5],[1,0,0,0,5],[1,1,0,0,-5]];perimeter=orthogonalPerimeter;outlineConnect=0;targetShapes=umlLifeline;portConstraint=eastwest;newEdgeStyle={&quot;curved&quot;:0,&quot;rounded&quot;:0};" parent="q7yPuHwjgGvsOjUBlJRA-52" vertex="1">
          <mxGeometry x="46" y="1070" width="10" height="70" as="geometry" />
        </mxCell>
        <mxCell id="q7yPuHwjgGvsOjUBlJRA-67" value="ringBell()" style="html=1;align=left;spacingLeft=2;endArrow=block;rounded=0;edgeStyle=orthogonalEdgeStyle;curved=0;rounded=0;exitX=1;exitY=1;exitDx=0;exitDy=-5;exitPerimeter=0;" parent="q7yPuHwjgGvsOjUBlJRA-52" source="q7yPuHwjgGvsOjUBlJRA-66" edge="1">
          <mxGeometry x="0.379" relative="1" as="geometry">
            <mxPoint x="51" y="1080" as="sourcePoint" />
            <Array as="points">
              <mxPoint x="81" y="1075" />
              <mxPoint x="81" y="1110" />
            </Array>
            <mxPoint x="56" y="1110" as="targetPoint" />
            <mxPoint as="offset" />
          </mxGeometry>
        </mxCell>
        <mxCell id="q7yPuHwjgGvsOjUBlJRA-68" value="" style="html=1;points=[[0,0,0,0,5],[0,1,0,0,-5],[1,0,0,0,5],[1,1,0,0,-5]];perimeter=orthogonalPerimeter;outlineConnect=0;targetShapes=umlLifeline;portConstraint=eastwest;newEdgeStyle={&quot;curved&quot;:0,&quot;rounded&quot;:0};" parent="q7yPuHwjgGvsOjUBlJRA-52" vertex="1">
          <mxGeometry x="46" y="1150" width="10" height="80" as="geometry" />
        </mxCell>
        <mxCell id="q7yPuHwjgGvsOjUBlJRA-69" value="closeDoor()" style="html=1;align=left;spacingLeft=2;endArrow=block;rounded=0;edgeStyle=orthogonalEdgeStyle;curved=0;rounded=0;" parent="q7yPuHwjgGvsOjUBlJRA-52" target="q7yPuHwjgGvsOjUBlJRA-68" edge="1">
          <mxGeometry relative="1" as="geometry">
            <mxPoint x="56" y="1130" as="sourcePoint" />
            <Array as="points">
              <mxPoint x="81" y="1130" />
              <mxPoint x="81" y="1160" />
            </Array>
          </mxGeometry>
        </mxCell>
        <mxCell id="q7yPuHwjgGvsOjUBlJRA-70" style="edgeStyle=orthogonalEdgeStyle;rounded=0;orthogonalLoop=1;jettySize=auto;html=1;curved=0;elbow=horizontal;" parent="q7yPuHwjgGvsOjUBlJRA-52" source="q7yPuHwjgGvsOjUBlJRA-68" target="q7yPuHwjgGvsOjUBlJRA-68" edge="1">
          <mxGeometry relative="1" as="geometry">
            <Array as="points">
              <mxPoint x="81" y="1190" />
            </Array>
          </mxGeometry>
        </mxCell>
        <mxCell id="q7yPuHwjgGvsOjUBlJRA-71" value="ringBell()" style="edgeLabel;html=1;align=center;verticalAlign=middle;resizable=0;points=[];" parent="q7yPuHwjgGvsOjUBlJRA-70" vertex="1" connectable="0">
          <mxGeometry x="0.3458" relative="1" as="geometry">
            <mxPoint x="32" y="-10" as="offset" />
          </mxGeometry>
        </mxCell>
        <mxCell id="q7yPuHwjgGvsOjUBlJRA-72" style="edgeStyle=orthogonalEdgeStyle;rounded=0;orthogonalLoop=1;jettySize=auto;html=1;curved=0;exitX=1;exitY=1;exitDx=0;exitDy=-5;exitPerimeter=0;entryX=0;entryY=0;entryDx=0;entryDy=5;entryPerimeter=0;" parent="1" source="q7yPuHwjgGvsOjUBlJRA-28" target="q7yPuHwjgGvsOjUBlJRA-53" edge="1">
          <mxGeometry relative="1" as="geometry">
            <mxPoint x="765" y="415" as="targetPoint" />
            <Array as="points" />
          </mxGeometry>
        </mxCell>
        <mxCell id="q7yPuHwjgGvsOjUBlJRA-73" value="openDoor()" style="edgeLabel;html=1;align=center;verticalAlign=middle;resizable=0;points=[];" parent="q7yPuHwjgGvsOjUBlJRA-72" vertex="1" connectable="0">
          <mxGeometry x="0.0144" relative="1" as="geometry">
            <mxPoint as="offset" />
          </mxGeometry>
        </mxCell>
        <mxCell id="q7yPuHwjgGvsOjUBlJRA-74" style="edgeStyle=orthogonalEdgeStyle;rounded=0;orthogonalLoop=1;jettySize=auto;html=1;curved=0;exitX=0;exitY=1;exitDx=0;exitDy=-5;exitPerimeter=0;entryX=1;entryY=0;entryDx=0;entryDy=5;entryPerimeter=0;" parent="1" source="q7yPuHwjgGvsOjUBlJRA-30" target="q7yPuHwjgGvsOjUBlJRA-20" edge="1">
          <mxGeometry relative="1" as="geometry" />
        </mxCell>
        <mxCell id="q7yPuHwjgGvsOjUBlJRA-75" value="enterElevator()" style="edgeLabel;html=1;align=center;verticalAlign=middle;resizable=0;points=[];" parent="q7yPuHwjgGvsOjUBlJRA-74" vertex="1" connectable="0">
          <mxGeometry x="0.1553" y="1" relative="1" as="geometry">
            <mxPoint x="13" y="-6" as="offset" />
          </mxGeometry>
        </mxCell>
        <mxCell id="q7yPuHwjgGvsOjUBlJRA-76" style="edgeStyle=orthogonalEdgeStyle;rounded=0;orthogonalLoop=1;jettySize=auto;html=1;curved=0;exitX=1;exitY=1;exitDx=0;exitDy=-5;exitPerimeter=0;entryX=0;entryY=0;entryDx=0;entryDy=5;entryPerimeter=0;" parent="1" source="q7yPuHwjgGvsOjUBlJRA-4" target="q7yPuHwjgGvsOjUBlJRA-21" edge="1">
          <mxGeometry relative="1" as="geometry" />
        </mxCell>
        <mxCell id="q7yPuHwjgGvsOjUBlJRA-77" value="pressFloorNumber(2)" style="edgeLabel;html=1;align=center;verticalAlign=middle;resizable=0;points=[];" parent="q7yPuHwjgGvsOjUBlJRA-76" vertex="1" connectable="0">
          <mxGeometry x="-0.1462" y="1" relative="1" as="geometry">
            <mxPoint x="1" y="-4" as="offset" />
          </mxGeometry>
        </mxCell>
        <mxCell id="q7yPuHwjgGvsOjUBlJRA-78" value="isDoorClosed()" style="html=1;verticalAlign=bottom;endArrow=block;curved=0;rounded=0;entryX=0;entryY=0;entryDx=0;entryDy=5;" parent="1" source="q7yPuHwjgGvsOjUBlJRA-32" target="q7yPuHwjgGvsOjUBlJRA-59" edge="1">
          <mxGeometry relative="1" as="geometry">
            <mxPoint x="695" y="755" as="sourcePoint" />
          </mxGeometry>
        </mxCell>
        <mxCell id="q7yPuHwjgGvsOjUBlJRA-79" value="true" style="html=1;verticalAlign=bottom;endArrow=open;dashed=1;endSize=8;curved=0;rounded=0;exitX=0;exitY=1;exitDx=0;exitDy=-5;" parent="1" source="q7yPuHwjgGvsOjUBlJRA-59" target="q7yPuHwjgGvsOjUBlJRA-32" edge="1">
          <mxGeometry relative="1" as="geometry">
            <mxPoint x="695" y="825" as="targetPoint" />
            <mxPoint as="offset" />
          </mxGeometry>
        </mxCell>
        <mxCell id="q7yPuHwjgGvsOjUBlJRA-80" style="edgeStyle=orthogonalEdgeStyle;rounded=0;orthogonalLoop=1;jettySize=auto;html=1;curved=0;entryX=0;entryY=0;entryDx=0;entryDy=5;entryPerimeter=0;" parent="1" source="q7yPuHwjgGvsOjUBlJRA-32" target="q7yPuHwjgGvsOjUBlJRA-60" edge="1">
          <mxGeometry relative="1" as="geometry">
            <Array as="points">
              <mxPoint x="730" y="825" />
              <mxPoint x="730" y="825" />
            </Array>
          </mxGeometry>
        </mxCell>
        <mxCell id="q7yPuHwjgGvsOjUBlJRA-81" value="setStatus(Moving)" style="edgeLabel;html=1;align=center;verticalAlign=middle;resizable=0;points=[];" parent="q7yPuHwjgGvsOjUBlJRA-80" vertex="1" connectable="0">
          <mxGeometry x="-0.1469" relative="1" as="geometry">
            <mxPoint as="offset" />
          </mxGeometry>
        </mxCell>
        <mxCell id="q7yPuHwjgGvsOjUBlJRA-82" value="getFireAlarm()" style="html=1;verticalAlign=bottom;endArrow=block;curved=0;rounded=0;entryX=0;entryY=0;entryDx=0;entryDy=5;" parent="1" source="q7yPuHwjgGvsOjUBlJRA-32" target="q7yPuHwjgGvsOjUBlJRA-61" edge="1">
          <mxGeometry relative="1" as="geometry">
            <mxPoint x="765" y="945" as="sourcePoint" />
          </mxGeometry>
        </mxCell>
        <mxCell id="q7yPuHwjgGvsOjUBlJRA-83" value="false" style="html=1;verticalAlign=bottom;endArrow=open;dashed=1;endSize=8;curved=0;rounded=0;exitX=0;exitY=1;exitDx=0;exitDy=-5;" parent="1" source="q7yPuHwjgGvsOjUBlJRA-61" target="q7yPuHwjgGvsOjUBlJRA-32" edge="1">
          <mxGeometry relative="1" as="geometry">
            <mxPoint x="740" y="975" as="targetPoint" />
          </mxGeometry>
        </mxCell>
        <mxCell id="q7yPuHwjgGvsOjUBlJRA-84" value="false" style="html=1;verticalAlign=bottom;endArrow=open;dashed=1;endSize=8;curved=0;rounded=0;exitX=0;exitY=1;exitDx=0;exitDy=-5;" parent="1" source="q7yPuHwjgGvsOjUBlJRA-62" target="q7yPuHwjgGvsOjUBlJRA-32" edge="1">
          <mxGeometry relative="1" as="geometry">
            <mxPoint x="765" y="1075" as="targetPoint" />
          </mxGeometry>
        </mxCell>
        <mxCell id="q7yPuHwjgGvsOjUBlJRA-85" value="getPowerout" style="html=1;verticalAlign=bottom;endArrow=block;curved=0;rounded=0;entryX=0;entryY=0;entryDx=0;entryDy=5;" parent="1" source="q7yPuHwjgGvsOjUBlJRA-32" target="q7yPuHwjgGvsOjUBlJRA-62" edge="1">
          <mxGeometry relative="1" as="geometry">
            <mxPoint x="765" y="1005" as="sourcePoint" />
          </mxGeometry>
        </mxCell>
        <mxCell id="q7yPuHwjgGvsOjUBlJRA-86" value="setCurrentFloor(floor2)" style="edgeStyle=orthogonalEdgeStyle;rounded=0;orthogonalLoop=1;jettySize=auto;html=1;curved=0;entryX=0;entryY=0;entryDx=0;entryDy=5;entryPerimeter=0;" parent="1" source="q7yPuHwjgGvsOjUBlJRA-32" target="q7yPuHwjgGvsOjUBlJRA-63" edge="1">
          <mxGeometry relative="1" as="geometry">
            <Array as="points">
              <mxPoint x="670" y="975" />
              <mxPoint x="670" y="975" />
            </Array>
          </mxGeometry>
        </mxCell>
        <mxCell id="q7yPuHwjgGvsOjUBlJRA-87" style="edgeStyle=orthogonalEdgeStyle;rounded=0;orthogonalLoop=1;jettySize=auto;html=1;curved=0;exitX=0;exitY=1;exitDx=0;exitDy=-5;exitPerimeter=0;entryX=1;entryY=0;entryDx=0;entryDy=5;entryPerimeter=0;" parent="1" source="q7yPuHwjgGvsOjUBlJRA-64" target="q7yPuHwjgGvsOjUBlJRA-22" edge="1">
          <mxGeometry relative="1" as="geometry" />
        </mxCell>
        <mxCell id="q7yPuHwjgGvsOjUBlJRA-88" value="updateCurrentFloor(floor2)" style="edgeLabel;html=1;align=center;verticalAlign=middle;resizable=0;points=[];" parent="q7yPuHwjgGvsOjUBlJRA-87" vertex="1" connectable="0">
          <mxGeometry x="0.0941" y="-2" relative="1" as="geometry">
            <mxPoint as="offset" />
          </mxGeometry>
        </mxCell>
        <mxCell id="q7yPuHwjgGvsOjUBlJRA-89" style="edgeStyle=orthogonalEdgeStyle;rounded=0;orthogonalLoop=1;jettySize=auto;html=1;curved=0;entryX=1;entryY=0;entryDx=0;entryDy=5;entryPerimeter=0;" parent="1" source="q7yPuHwjgGvsOjUBlJRA-32" target="q7yPuHwjgGvsOjUBlJRA-5" edge="1">
          <mxGeometry relative="1" as="geometry">
            <Array as="points">
              <mxPoint x="390" y="1175" />
              <mxPoint x="390" y="1175" />
            </Array>
          </mxGeometry>
        </mxCell>
        <mxCell id="q7yPuHwjgGvsOjUBlJRA-90" value="elevatorArrivedAtFloor(elevator2, floor2)" style="edgeLabel;html=1;align=center;verticalAlign=middle;resizable=0;points=[];" parent="q7yPuHwjgGvsOjUBlJRA-89" vertex="1" connectable="0">
          <mxGeometry x="0.2299" relative="1" as="geometry">
            <mxPoint as="offset" />
          </mxGeometry>
        </mxCell>
        <mxCell id="q7yPuHwjgGvsOjUBlJRA-91" style="edgeStyle=orthogonalEdgeStyle;rounded=0;orthogonalLoop=1;jettySize=auto;html=1;curved=0;exitX=0;exitY=1;exitDx=0;exitDy=-5;exitPerimeter=0;entryX=1;entryY=0;entryDx=0;entryDy=5;entryPerimeter=0;" parent="1" source="q7yPuHwjgGvsOjUBlJRA-37" target="q7yPuHwjgGvsOjUBlJRA-23" edge="1">
          <mxGeometry relative="1" as="geometry" />
        </mxCell>
        <mxCell id="q7yPuHwjgGvsOjUBlJRA-92" value="exitElevator()" style="edgeLabel;html=1;align=center;verticalAlign=middle;resizable=0;points=[];" parent="q7yPuHwjgGvsOjUBlJRA-91" vertex="1" connectable="0">
          <mxGeometry x="0.1695" y="-1" relative="1" as="geometry">
            <mxPoint as="offset" />
          </mxGeometry>
        </mxCell>
        <mxCell id="q7yPuHwjgGvsOjUBlJRA-93" value="onOkButtonClicked()" style="html=1;verticalAlign=bottom;endArrow=block;curved=0;rounded=0;entryX=0;entryY=0;entryDx=0;entryDy=5;entryPerimeter=0;" parent="1" source="q7yPuHwjgGvsOjUBlJRA-51" target="q7yPuHwjgGvsOjUBlJRA-2" edge="1">
          <mxGeometry width="80" relative="1" as="geometry">
            <mxPoint x="-180" y="80" as="sourcePoint" />
            <mxPoint x="-100" y="80" as="targetPoint" />
          </mxGeometry>
        </mxCell>
        <mxCell id="q7yPuHwjgGvsOjUBlJRA-94" value="getPassengerByID(1)" style="html=1;verticalAlign=bottom;endArrow=block;curved=0;rounded=0;exitX=1;exitY=0;exitDx=0;exitDy=5;exitPerimeter=0;" parent="1" source="q7yPuHwjgGvsOjUBlJRA-2" target="q7yPuHwjgGvsOjUBlJRA-25" edge="1">
          <mxGeometry width="80" relative="1" as="geometry">
            <mxPoint x="270" y="100" as="sourcePoint" />
            <mxPoint x="320" y="100" as="targetPoint" />
          </mxGeometry>
        </mxCell>
        <mxCell id="q7yPuHwjgGvsOjUBlJRA-95" value="floor1" style="shape=umlLifeline;perimeter=lifelinePerimeter;whiteSpace=wrap;html=1;container=1;dropTarget=0;collapsible=0;recursiveResize=0;outlineConnect=0;portConstraint=eastwest;newEdgeStyle={&quot;curved&quot;:0,&quot;rounded&quot;:0};" parent="1" vertex="1">
          <mxGeometry x="-480" y="20" width="100" height="4650" as="geometry" />
        </mxCell>
        <mxCell id="q7yPuHwjgGvsOjUBlJRA-96" value="" style="html=1;points=[[0,0,0,0,5],[0,1,0,0,-5],[1,0,0,0,5],[1,1,0,0,-5]];perimeter=orthogonalPerimeter;outlineConnect=0;targetShapes=umlLifeline;portConstraint=eastwest;newEdgeStyle={&quot;curved&quot;:0,&quot;rounded&quot;:0};" parent="q7yPuHwjgGvsOjUBlJRA-95" vertex="1">
          <mxGeometry x="45" y="90" width="10" height="40" as="geometry" />
        </mxCell>
        <mxCell id="q7yPuHwjgGvsOjUBlJRA-99" value="1" style="html=1;verticalAlign=bottom;endArrow=open;dashed=1;endSize=8;curved=0;rounded=0;exitX=0;exitY=1;exitDx=0;exitDy=-5;exitPerimeter=0;" parent="1" source="q7yPuHwjgGvsOjUBlJRA-96" target="q7yPuHwjgGvsOjUBlJRA-2" edge="1">
          <mxGeometry relative="1" as="geometry">
            <mxPoint x="-120" y="140" as="targetPoint" />
            <Array as="points">
              <mxPoint x="-500" y="145" />
            </Array>
          </mxGeometry>
        </mxCell>
        <mxCell id="q7yPuHwjgGvsOjUBlJRA-100" value="getFloorNumber()" style="html=1;verticalAlign=bottom;endArrow=block;curved=0;rounded=0;entryX=0;entryY=0;entryDx=0;entryDy=5;" parent="1" source="q7yPuHwjgGvsOjUBlJRA-2" target="q7yPuHwjgGvsOjUBlJRA-96" edge="1">
          <mxGeometry relative="1" as="geometry">
            <mxPoint x="-65" y="105" as="sourcePoint" />
          </mxGeometry>
        </mxCell>
        <mxCell id="q7yPuHwjgGvsOjUBlJRA-101" value="floor2" style="shape=umlLifeline;perimeter=lifelinePerimeter;whiteSpace=wrap;html=1;container=1;dropTarget=0;collapsible=0;recursiveResize=0;outlineConnect=0;portConstraint=eastwest;newEdgeStyle={&quot;curved&quot;:0,&quot;rounded&quot;:0};" parent="1" vertex="1">
          <mxGeometry x="-360" y="20" width="100" height="4350" as="geometry" />
        </mxCell>
        <mxCell id="q7yPuHwjgGvsOjUBlJRA-102" value="" style="html=1;points=[[0,0,0,0,5],[0,1,0,0,-5],[1,0,0,0,5],[1,1,0,0,-5]];perimeter=orthogonalPerimeter;outlineConnect=0;targetShapes=umlLifeline;portConstraint=eastwest;newEdgeStyle={&quot;curved&quot;:0,&quot;rounded&quot;:0};" parent="q7yPuHwjgGvsOjUBlJRA-101" vertex="1">
          <mxGeometry x="45" y="1080" width="10" height="40" as="geometry" />
        </mxCell>
        <mxCell id="q7yPuHwjgGvsOjUBlJRA-105" value="2" style="html=1;verticalAlign=bottom;endArrow=open;dashed=1;endSize=8;curved=0;rounded=0;exitX=0;exitY=1;exitDx=0;exitDy=-5;exitPerimeter=0;" parent="1" source="q7yPuHwjgGvsOjUBlJRA-102" target="q7yPuHwjgGvsOjUBlJRA-2" edge="1">
          <mxGeometry x="0.0031" relative="1" as="geometry">
            <mxPoint x="-55" y="1175" as="targetPoint" />
            <Array as="points" />
            <mxPoint as="offset" />
          </mxGeometry>
        </mxCell>
        <mxCell id="q7yPuHwjgGvsOjUBlJRA-106" value="getFloorNumber()" style="html=1;verticalAlign=bottom;endArrow=block;curved=0;rounded=0;entryX=0;entryY=0;entryDx=0;entryDy=5;" parent="1" source="q7yPuHwjgGvsOjUBlJRA-2" target="q7yPuHwjgGvsOjUBlJRA-102" edge="1">
          <mxGeometry relative="1" as="geometry">
            <mxPoint x="-55" y="1105" as="sourcePoint" />
          </mxGeometry>
        </mxCell>
        <mxCell id="q7yPuHwjgGvsOjUBlJRA-107" value="onFloor2ButtonClicked()" style="html=1;verticalAlign=bottom;endArrow=block;curved=0;rounded=0;" parent="1" target="q7yPuHwjgGvsOjUBlJRA-4" edge="1">
          <mxGeometry width="80" relative="1" as="geometry">
            <mxPoint x="-673" y="550" as="sourcePoint" />
            <mxPoint x="-593" y="550" as="targetPoint" />
          </mxGeometry>
        </mxCell>
        <mxCell id="q7yPuHwjgGvsOjUBlJRA-108" value="onUpButtonClicked()" style="html=1;verticalAlign=bottom;endArrow=block;curved=0;rounded=0;" parent="1" target="q7yPuHwjgGvsOjUBlJRA-3" edge="1">
          <mxGeometry width="80" relative="1" as="geometry">
            <mxPoint x="-673" y="160" as="sourcePoint" />
            <mxPoint x="-593" y="160" as="targetPoint" />
          </mxGeometry>
        </mxCell>
        <mxCell id="q7yPuHwjgGvsOjUBlJRA-109" value="floor3" style="shape=umlLifeline;perimeter=lifelinePerimeter;whiteSpace=wrap;html=1;container=1;dropTarget=0;collapsible=0;recursiveResize=0;outlineConnect=0;portConstraint=eastwest;newEdgeStyle={&quot;curved&quot;:0,&quot;rounded&quot;:0};" parent="1" vertex="1">
          <mxGeometry x="-230" y="20" width="100" height="4540" as="geometry" />
        </mxCell>
        <mxCell id="q7yPuHwjgGvsOjUBlJRA-97" value="" style="html=1;points=[[0,0,0,0,5],[0,1,0,0,-5],[1,0,0,0,5],[1,1,0,0,-5]];perimeter=orthogonalPerimeter;outlineConnect=0;targetShapes=umlLifeline;portConstraint=eastwest;newEdgeStyle={&quot;curved&quot;:0,&quot;rounded&quot;:0};" parent="q7yPuHwjgGvsOjUBlJRA-109" vertex="1">
          <mxGeometry x="45" y="1530" width="10" height="40" as="geometry" />
        </mxCell>
        <mxCell id="q7yPuHwjgGvsOjUBlJRA-112" value="floor4" style="shape=umlLifeline;perimeter=lifelinePerimeter;whiteSpace=wrap;html=1;container=1;dropTarget=0;collapsible=0;recursiveResize=0;outlineConnect=0;portConstraint=eastwest;newEdgeStyle={&quot;curved&quot;:0,&quot;rounded&quot;:0};" parent="1" vertex="1">
          <mxGeometry x="-100" y="20" width="100" height="4550" as="geometry" />
        </mxCell>
        <mxCell id="q7yPuHwjgGvsOjUBlJRA-103" value="" style="html=1;points=[[0,0,0,0,5],[0,1,0,0,-5],[1,0,0,0,5],[1,1,0,0,-5]];perimeter=orthogonalPerimeter;outlineConnect=0;targetShapes=umlLifeline;portConstraint=eastwest;newEdgeStyle={&quot;curved&quot;:0,&quot;rounded&quot;:0};" parent="q7yPuHwjgGvsOjUBlJRA-112" vertex="1">
          <mxGeometry x="45" y="2450" width="10" height="40" as="geometry" />
        </mxCell>
        <mxCell id="q7yPuHwjgGvsOjUBlJRA-114" value="addCarRequest(2, elevator1)" style="html=1;verticalAlign=bottom;endArrow=block;curved=0;rounded=0;exitX=1;exitY=1;exitDx=0;exitDy=-5;exitPerimeter=0;" parent="1" source="q7yPuHwjgGvsOjUBlJRA-21" target="q7yPuHwjgGvsOjUBlJRA-25" edge="1">
          <mxGeometry width="80" relative="1" as="geometry">
            <mxPoint x="540" y="610" as="sourcePoint" />
            <mxPoint x="580" y="610" as="targetPoint" />
          </mxGeometry>
        </mxCell>
        <mxCell id="q7yPuHwjgGvsOjUBlJRA-115" value="addFloorRequest(floor1, UP)" style="html=1;verticalAlign=bottom;endArrow=block;curved=0;rounded=0;" parent="1" source="q7yPuHwjgGvsOjUBlJRA-3" target="q7yPuHwjgGvsOjUBlJRA-25" edge="1">
          <mxGeometry width="80" relative="1" as="geometry">
            <mxPoint x="550" y="190" as="sourcePoint" />
            <mxPoint x="630" y="190" as="targetPoint" />
            <Array as="points">
              <mxPoint x="170" y="180" />
            </Array>
          </mxGeometry>
        </mxCell>
        <mxCell id="q7yPuHwjgGvsOjUBlJRA-116" value="pressDirection(UP)" style="html=1;verticalAlign=bottom;endArrow=block;curved=0;rounded=0;entryX=0;entryY=0;entryDx=0;entryDy=5;entryPerimeter=0;" parent="1" source="q7yPuHwjgGvsOjUBlJRA-3" target="q7yPuHwjgGvsOjUBlJRA-19" edge="1">
          <mxGeometry width="80" relative="1" as="geometry">
            <mxPoint x="240" y="160" as="sourcePoint" />
            <mxPoint x="320" y="160" as="targetPoint" />
          </mxGeometry>
        </mxCell>
        <mxCell id="q7yPuHwjgGvsOjUBlJRA-117" value="passenger2" style="shape=umlLifeline;perimeter=lifelinePerimeter;whiteSpace=wrap;html=1;container=1;dropTarget=0;collapsible=0;recursiveResize=0;outlineConnect=0;portConstraint=eastwest;newEdgeStyle={&quot;curved&quot;:0,&quot;rounded&quot;:0};" parent="1" vertex="1">
          <mxGeometry x="400" y="20" width="100" height="3040" as="geometry" />
        </mxCell>
        <mxCell id="q7yPuHwjgGvsOjUBlJRA-118" value="" style="html=1;points=[[0,0,0,0,5],[0,1,0,0,-5],[1,0,0,0,5],[1,1,0,0,-5]];perimeter=orthogonalPerimeter;outlineConnect=0;targetShapes=umlLifeline;portConstraint=eastwest;newEdgeStyle={&quot;curved&quot;:0,&quot;rounded&quot;:0};" parent="q7yPuHwjgGvsOjUBlJRA-117" vertex="1">
          <mxGeometry x="45" y="1870" width="10" height="50" as="geometry" />
        </mxCell>
        <mxCell id="q7yPuHwjgGvsOjUBlJRA-119" value="" style="html=1;points=[[0,0,0,0,5],[0,1,0,0,-5],[1,0,0,0,5],[1,1,0,0,-5]];perimeter=orthogonalPerimeter;outlineConnect=0;targetShapes=umlLifeline;portConstraint=eastwest;newEdgeStyle={&quot;curved&quot;:0,&quot;rounded&quot;:0};" parent="q7yPuHwjgGvsOjUBlJRA-117" vertex="1">
          <mxGeometry x="45" y="1940" width="10" height="50" as="geometry" />
        </mxCell>
        <mxCell id="q7yPuHwjgGvsOjUBlJRA-120" value="" style="html=1;points=[[0,0,0,0,5],[0,1,0,0,-5],[1,0,0,0,5],[1,1,0,0,-5]];perimeter=orthogonalPerimeter;outlineConnect=0;targetShapes=umlLifeline;portConstraint=eastwest;newEdgeStyle={&quot;curved&quot;:0,&quot;rounded&quot;:0};" parent="q7yPuHwjgGvsOjUBlJRA-117" vertex="1">
          <mxGeometry x="45" y="2790" width="10" height="50" as="geometry" />
        </mxCell>
        <mxCell id="q7yPuHwjgGvsOjUBlJRA-121" value="passenger3" style="shape=umlLifeline;perimeter=lifelinePerimeter;whiteSpace=wrap;html=1;container=1;dropTarget=0;collapsible=0;recursiveResize=0;outlineConnect=0;portConstraint=eastwest;newEdgeStyle={&quot;curved&quot;:0,&quot;rounded&quot;:0};" parent="1" vertex="1">
          <mxGeometry x="510" y="20" width="100" height="4640" as="geometry" />
        </mxCell>
        <mxCell id="q7yPuHwjgGvsOjUBlJRA-122" value="" style="html=1;points=[[0,0,0,0,5],[0,1,0,0,-5],[1,0,0,0,5],[1,1,0,0,-5]];perimeter=orthogonalPerimeter;outlineConnect=0;targetShapes=umlLifeline;portConstraint=eastwest;newEdgeStyle={&quot;curved&quot;:0,&quot;rounded&quot;:0};" parent="q7yPuHwjgGvsOjUBlJRA-121" vertex="1">
          <mxGeometry x="45" y="1630" width="10" height="30" as="geometry" />
        </mxCell>
        <mxCell id="q7yPuHwjgGvsOjUBlJRA-123" value="" style="html=1;points=[[0,0,0,0,5],[0,1,0,0,-5],[1,0,0,0,5],[1,1,0,0,-5]];perimeter=orthogonalPerimeter;outlineConnect=0;targetShapes=umlLifeline;portConstraint=eastwest;newEdgeStyle={&quot;curved&quot;:0,&quot;rounded&quot;:0};" parent="q7yPuHwjgGvsOjUBlJRA-121" vertex="1">
          <mxGeometry x="45" y="3400" width="10" height="50" as="geometry" />
        </mxCell>
        <mxCell id="q7yPuHwjgGvsOjUBlJRA-124" value="" style="html=1;points=[[0,0,0,0,5],[0,1,0,0,-5],[1,0,0,0,5],[1,1,0,0,-5]];perimeter=orthogonalPerimeter;outlineConnect=0;targetShapes=umlLifeline;portConstraint=eastwest;newEdgeStyle={&quot;curved&quot;:0,&quot;rounded&quot;:0};" parent="q7yPuHwjgGvsOjUBlJRA-121" vertex="1">
          <mxGeometry x="45" y="3470" width="10" height="50" as="geometry" />
        </mxCell>
        <mxCell id="q7yPuHwjgGvsOjUBlJRA-125" value="" style="html=1;points=[[0,0,0,0,5],[0,1,0,0,-5],[1,0,0,0,5],[1,1,0,0,-5]];perimeter=orthogonalPerimeter;outlineConnect=0;targetShapes=umlLifeline;portConstraint=eastwest;newEdgeStyle={&quot;curved&quot;:0,&quot;rounded&quot;:0};" parent="q7yPuHwjgGvsOjUBlJRA-121" vertex="1">
          <mxGeometry x="45" y="3150" width="10" height="30" as="geometry" />
        </mxCell>
        <mxCell id="q7yPuHwjgGvsOjUBlJRA-126" value="" style="html=1;points=[[0,0,0,0,5],[0,1,0,0,-5],[1,0,0,0,5],[1,1,0,0,-5]];perimeter=orthogonalPerimeter;outlineConnect=0;targetShapes=umlLifeline;portConstraint=eastwest;newEdgeStyle={&quot;curved&quot;:0,&quot;rounded&quot;:0};" parent="q7yPuHwjgGvsOjUBlJRA-121" vertex="1">
          <mxGeometry x="44.5" y="4230" width="10" height="50" as="geometry" />
        </mxCell>
        <mxCell id="q7yPuHwjgGvsOjUBlJRA-127" value="onOkButtonClicked()" style="html=1;verticalAlign=bottom;endArrow=block;curved=0;rounded=0;" parent="1" edge="1">
          <mxGeometry width="80" relative="1" as="geometry">
            <mxPoint x="-672.9981818181816" y="1500" as="sourcePoint" />
            <mxPoint x="-563.6800000000001" y="1500" as="targetPoint" />
          </mxGeometry>
        </mxCell>
        <mxCell id="q7yPuHwjgGvsOjUBlJRA-128" value="getPassengerByID(2)" style="html=1;verticalAlign=bottom;endArrow=block;curved=0;rounded=0;" parent="1" source="q7yPuHwjgGvsOjUBlJRA-2" edge="1">
          <mxGeometry width="80" relative="1" as="geometry">
            <mxPoint x="-290" y="1520" as="sourcePoint" />
            <mxPoint x="660" y="1520" as="targetPoint" />
          </mxGeometry>
        </mxCell>
        <mxCell id="q7yPuHwjgGvsOjUBlJRA-129" value="getFloorNumber()" style="html=1;verticalAlign=bottom;endArrow=block;curved=0;rounded=0;entryX=0;entryY=0;entryDx=0;entryDy=5;" parent="1" source="q7yPuHwjgGvsOjUBlJRA-2" target="q7yPuHwjgGvsOjUBlJRA-97" edge="1">
          <mxGeometry relative="1" as="geometry">
            <mxPoint x="-505" y="1555" as="sourcePoint" />
          </mxGeometry>
        </mxCell>
        <mxCell id="q7yPuHwjgGvsOjUBlJRA-130" value="3" style="html=1;verticalAlign=bottom;endArrow=open;dashed=1;endSize=8;curved=0;rounded=0;exitX=0;exitY=1;exitDx=0;exitDy=-5;" parent="1" source="q7yPuHwjgGvsOjUBlJRA-97" target="q7yPuHwjgGvsOjUBlJRA-2" edge="1">
          <mxGeometry relative="1" as="geometry">
            <mxPoint x="-505" y="1625" as="targetPoint" />
          </mxGeometry>
        </mxCell>
        <mxCell id="q7yPuHwjgGvsOjUBlJRA-131" value="onUpButtonClicked()" style="html=1;verticalAlign=bottom;startArrow=none;endArrow=block;startSize=8;curved=0;rounded=0;entryX=0;entryY=0;entryDx=0;entryDy=5;startFill=0;" parent="1" source="q7yPuHwjgGvsOjUBlJRA-51" target="q7yPuHwjgGvsOjUBlJRA-8" edge="1">
          <mxGeometry relative="1" as="geometry">
            <mxPoint x="-630" y="1635" as="sourcePoint" />
          </mxGeometry>
        </mxCell>
        <mxCell id="q7yPuHwjgGvsOjUBlJRA-132" value="pressDIrection(UP)" style="html=1;verticalAlign=bottom;startArrow=none;endArrow=block;startSize=8;curved=0;rounded=0;entryX=0;entryY=0;entryDx=0;entryDy=5;startFill=0;" parent="1" source="q7yPuHwjgGvsOjUBlJRA-8" target="q7yPuHwjgGvsOjUBlJRA-122" edge="1">
          <mxGeometry relative="1" as="geometry">
            <mxPoint x="375" y="1655" as="sourcePoint" />
          </mxGeometry>
        </mxCell>
        <mxCell id="q7yPuHwjgGvsOjUBlJRA-133" value="addFloorRequest(floor3, UP)" style="html=1;verticalAlign=bottom;endArrow=block;curved=0;rounded=0;" parent="1" source="q7yPuHwjgGvsOjUBlJRA-8" edge="1">
          <mxGeometry width="80" relative="1" as="geometry">
            <mxPoint x="-290" y="1700" as="sourcePoint" />
            <mxPoint x="665" y="1700" as="targetPoint" />
          </mxGeometry>
        </mxCell>
        <mxCell id="q7yPuHwjgGvsOjUBlJRA-134" value="" style="html=1;points=[[0,0,0,0,5],[0,1,0,0,-5],[1,0,0,0,5],[1,1,0,0,-5]];perimeter=orthogonalPerimeter;outlineConnect=0;targetShapes=umlLifeline;portConstraint=eastwest;newEdgeStyle={&quot;curved&quot;:0,&quot;rounded&quot;:0};" parent="1" vertex="1">
          <mxGeometry x="669" y="1730" width="10" height="40" as="geometry" />
        </mxCell>
        <mxCell id="q7yPuHwjgGvsOjUBlJRA-135" value="moveIdle()" style="html=1;align=left;spacingLeft=2;endArrow=block;rounded=0;edgeStyle=orthogonalEdgeStyle;curved=0;rounded=0;" parent="1" target="q7yPuHwjgGvsOjUBlJRA-134" edge="1">
          <mxGeometry relative="1" as="geometry">
            <mxPoint x="676" y="1710" as="sourcePoint" />
            <Array as="points">
              <mxPoint x="706" y="1740" />
            </Array>
          </mxGeometry>
        </mxCell>
        <mxCell id="q7yPuHwjgGvsOjUBlJRA-136" value="" style="html=1;points=[[0,0,0,0,5],[0,1,0,0,-5],[1,0,0,0,5],[1,1,0,0,-5]];perimeter=orthogonalPerimeter;outlineConnect=0;targetShapes=umlLifeline;portConstraint=eastwest;newEdgeStyle={&quot;curved&quot;:0,&quot;rounded&quot;:0};" parent="1" vertex="1">
          <mxGeometry x="670" y="1790" width="10" height="70" as="geometry" />
        </mxCell>
        <mxCell id="q7yPuHwjgGvsOjUBlJRA-137" value="moveElevatorToFloor(elevator2, floor3)" style="html=1;align=left;spacingLeft=2;endArrow=block;rounded=0;edgeStyle=orthogonalEdgeStyle;curved=0;rounded=0;exitX=1;exitY=1;exitDx=0;exitDy=-5;exitPerimeter=0;" parent="1" source="q7yPuHwjgGvsOjUBlJRA-134" target="q7yPuHwjgGvsOjUBlJRA-136" edge="1">
          <mxGeometry x="0.0059" relative="1" as="geometry">
            <mxPoint x="671" y="1770" as="sourcePoint" />
            <Array as="points">
              <mxPoint x="701" y="1765" />
              <mxPoint x="701" y="1800" />
            </Array>
            <mxPoint as="offset" />
          </mxGeometry>
        </mxCell>
        <mxCell id="q7yPuHwjgGvsOjUBlJRA-138" value="" style="html=1;points=[[0,0,0,0,5],[0,1,0,0,-5],[1,0,0,0,5],[1,1,0,0,-5]];perimeter=orthogonalPerimeter;outlineConnect=0;targetShapes=umlLifeline;portConstraint=eastwest;newEdgeStyle={&quot;curved&quot;:0,&quot;rounded&quot;:0};" parent="1" vertex="1">
          <mxGeometry x="670" y="1870" width="10" height="40" as="geometry" />
        </mxCell>
        <mxCell id="q7yPuHwjgGvsOjUBlJRA-139" value="movePassenger()" style="html=1;align=left;spacingLeft=2;endArrow=block;rounded=0;edgeStyle=orthogonalEdgeStyle;curved=0;rounded=0;" parent="1" source="q7yPuHwjgGvsOjUBlJRA-25" target="q7yPuHwjgGvsOjUBlJRA-138" edge="1">
          <mxGeometry relative="1" as="geometry">
            <mxPoint x="676" y="1860" as="sourcePoint" />
            <Array as="points">
              <mxPoint x="701" y="1860" />
              <mxPoint x="701" y="1890" />
            </Array>
          </mxGeometry>
        </mxCell>
        <mxCell id="q7yPuHwjgGvsOjUBlJRA-140" value="removeFloorRequest({floor3, UP})" style="html=1;align=left;spacingLeft=2;endArrow=block;rounded=0;edgeStyle=orthogonalEdgeStyle;curved=0;rounded=0;" parent="1" edge="1">
          <mxGeometry relative="1" as="geometry">
            <mxPoint x="681" y="1810" as="sourcePoint" />
            <Array as="points">
              <mxPoint x="706" y="1840" />
            </Array>
            <mxPoint x="681" y="1840" as="targetPoint" />
          </mxGeometry>
        </mxCell>
        <mxCell id="q7yPuHwjgGvsOjUBlJRA-141" value="elevator2" style="shape=umlLifeline;perimeter=lifelinePerimeter;whiteSpace=wrap;html=1;container=1;dropTarget=0;collapsible=0;recursiveResize=0;outlineConnect=0;portConstraint=eastwest;newEdgeStyle={&quot;curved&quot;:0,&quot;rounded&quot;:0};" parent="1" vertex="1">
          <mxGeometry x="990" y="20" width="100" height="2850" as="geometry" />
        </mxCell>
        <mxCell id="q7yPuHwjgGvsOjUBlJRA-142" value="" style="html=1;points=[[0,0,0,0,5],[0,1,0,0,-5],[1,0,0,0,5],[1,1,0,0,-5]];perimeter=orthogonalPerimeter;outlineConnect=0;targetShapes=umlLifeline;portConstraint=eastwest;newEdgeStyle={&quot;curved&quot;:0,&quot;rounded&quot;:0};" parent="q7yPuHwjgGvsOjUBlJRA-141" vertex="1">
          <mxGeometry x="44" y="1830" width="10" height="70" as="geometry" />
        </mxCell>
        <mxCell id="q7yPuHwjgGvsOjUBlJRA-143" value="ringBell()" style="html=1;align=left;spacingLeft=2;endArrow=block;rounded=0;edgeStyle=orthogonalEdgeStyle;curved=0;rounded=0;exitX=1;exitY=1;exitDx=0;exitDy=-5;exitPerimeter=0;" parent="q7yPuHwjgGvsOjUBlJRA-141" source="q7yPuHwjgGvsOjUBlJRA-142" edge="1">
          <mxGeometry x="0.379" relative="1" as="geometry">
            <mxPoint x="49" y="1840" as="sourcePoint" />
            <Array as="points">
              <mxPoint x="79" y="1835" />
              <mxPoint x="79" y="1870" />
            </Array>
            <mxPoint x="54" y="1870" as="targetPoint" />
            <mxPoint as="offset" />
          </mxGeometry>
        </mxCell>
        <mxCell id="q7yPuHwjgGvsOjUBlJRA-144" value="" style="html=1;points=[[0,0,0,0,5],[0,1,0,0,-5],[1,0,0,0,5],[1,1,0,0,-5]];perimeter=orthogonalPerimeter;outlineConnect=0;targetShapes=umlLifeline;portConstraint=eastwest;newEdgeStyle={&quot;curved&quot;:0,&quot;rounded&quot;:0};" parent="q7yPuHwjgGvsOjUBlJRA-141" vertex="1">
          <mxGeometry x="44" y="1910" width="10" height="80" as="geometry" />
        </mxCell>
        <mxCell id="q7yPuHwjgGvsOjUBlJRA-145" value="closeDoor()" style="html=1;align=left;spacingLeft=2;endArrow=block;rounded=0;edgeStyle=orthogonalEdgeStyle;curved=0;rounded=0;" parent="q7yPuHwjgGvsOjUBlJRA-141" target="q7yPuHwjgGvsOjUBlJRA-144" edge="1">
          <mxGeometry relative="1" as="geometry">
            <mxPoint x="54" y="1890" as="sourcePoint" />
            <Array as="points">
              <mxPoint x="79" y="1890" />
              <mxPoint x="79" y="1920" />
            </Array>
          </mxGeometry>
        </mxCell>
        <mxCell id="q7yPuHwjgGvsOjUBlJRA-146" style="edgeStyle=orthogonalEdgeStyle;rounded=0;orthogonalLoop=1;jettySize=auto;html=1;curved=0;elbow=horizontal;" parent="q7yPuHwjgGvsOjUBlJRA-141" source="q7yPuHwjgGvsOjUBlJRA-144" target="q7yPuHwjgGvsOjUBlJRA-144" edge="1">
          <mxGeometry relative="1" as="geometry">
            <Array as="points">
              <mxPoint x="79" y="1950" />
            </Array>
          </mxGeometry>
        </mxCell>
        <mxCell id="q7yPuHwjgGvsOjUBlJRA-147" value="ringBell()" style="edgeLabel;html=1;align=center;verticalAlign=middle;resizable=0;points=[];" parent="q7yPuHwjgGvsOjUBlJRA-146" vertex="1" connectable="0">
          <mxGeometry x="0.3458" relative="1" as="geometry">
            <mxPoint x="32" y="-10" as="offset" />
          </mxGeometry>
        </mxCell>
        <mxCell id="q7yPuHwjgGvsOjUBlJRA-148" value="" style="html=1;points=[[0,0,0,0,5],[0,1,0,0,-5],[1,0,0,0,5],[1,1,0,0,-5]];perimeter=orthogonalPerimeter;outlineConnect=0;targetShapes=umlLifeline;portConstraint=eastwest;newEdgeStyle={&quot;curved&quot;:0,&quot;rounded&quot;:0};" parent="q7yPuHwjgGvsOjUBlJRA-141" vertex="1">
          <mxGeometry x="45" y="2060" width="10" height="80" as="geometry" />
        </mxCell>
        <mxCell id="q7yPuHwjgGvsOjUBlJRA-149" value="" style="html=1;points=[[0,0,0,0,5],[0,1,0,0,-5],[1,0,0,0,5],[1,1,0,0,-5]];perimeter=orthogonalPerimeter;outlineConnect=0;targetShapes=umlLifeline;portConstraint=eastwest;newEdgeStyle={&quot;curved&quot;:0,&quot;rounded&quot;:0};" parent="q7yPuHwjgGvsOjUBlJRA-141" vertex="1">
          <mxGeometry x="45" y="2200" width="10" height="20" as="geometry" />
        </mxCell>
        <mxCell id="q7yPuHwjgGvsOjUBlJRA-150" value="" style="html=1;points=[[0,0,0,0,5],[0,1,0,0,-5],[1,0,0,0,5],[1,1,0,0,-5]];perimeter=orthogonalPerimeter;outlineConnect=0;targetShapes=umlLifeline;portConstraint=eastwest;newEdgeStyle={&quot;curved&quot;:0,&quot;rounded&quot;:0};" parent="q7yPuHwjgGvsOjUBlJRA-141" vertex="1">
          <mxGeometry x="45" y="2240" width="10" height="40" as="geometry" />
        </mxCell>
        <mxCell id="q7yPuHwjgGvsOjUBlJRA-151" value="" style="html=1;points=[[0,0,0,0,5],[0,1,0,0,-5],[1,0,0,0,5],[1,1,0,0,-5]];perimeter=orthogonalPerimeter;outlineConnect=0;targetShapes=umlLifeline;portConstraint=eastwest;newEdgeStyle={&quot;curved&quot;:0,&quot;rounded&quot;:0};" parent="q7yPuHwjgGvsOjUBlJRA-141" vertex="1">
          <mxGeometry x="45" y="2300" width="10" height="30" as="geometry" />
        </mxCell>
        <mxCell id="q7yPuHwjgGvsOjUBlJRA-152" value="" style="html=1;points=[[0,0,0,0,5],[0,1,0,0,-5],[1,0,0,0,5],[1,1,0,0,-5]];perimeter=orthogonalPerimeter;outlineConnect=0;targetShapes=umlLifeline;portConstraint=eastwest;newEdgeStyle={&quot;curved&quot;:0,&quot;rounded&quot;:0};" parent="q7yPuHwjgGvsOjUBlJRA-141" vertex="1">
          <mxGeometry x="45" y="2350" width="10" height="30" as="geometry" />
        </mxCell>
        <mxCell id="q7yPuHwjgGvsOjUBlJRA-153" value="" style="html=1;points=[[0,0,0,0,5],[0,1,0,0,-5],[1,0,0,0,5],[1,1,0,0,-5]];perimeter=orthogonalPerimeter;outlineConnect=0;targetShapes=umlLifeline;portConstraint=eastwest;newEdgeStyle={&quot;curved&quot;:0,&quot;rounded&quot;:0};" parent="q7yPuHwjgGvsOjUBlJRA-141" vertex="1">
          <mxGeometry x="45" y="2410" width="10" height="40" as="geometry" />
        </mxCell>
        <mxCell id="q7yPuHwjgGvsOjUBlJRA-154" value="currentFloorChanged(floor4)" style="html=1;align=left;spacingLeft=2;endArrow=block;rounded=0;edgeStyle=orthogonalEdgeStyle;curved=0;rounded=0;" parent="q7yPuHwjgGvsOjUBlJRA-141" target="q7yPuHwjgGvsOjUBlJRA-153" edge="1">
          <mxGeometry relative="1" as="geometry">
            <mxPoint x="50" y="2390" as="sourcePoint" />
            <Array as="points">
              <mxPoint x="80" y="2420" />
            </Array>
          </mxGeometry>
        </mxCell>
        <mxCell id="q7yPuHwjgGvsOjUBlJRA-155" value="" style="html=1;points=[[0,0,0,0,5],[0,1,0,0,-5],[1,0,0,0,5],[1,1,0,0,-5]];perimeter=orthogonalPerimeter;outlineConnect=0;targetShapes=umlLifeline;portConstraint=eastwest;newEdgeStyle={&quot;curved&quot;:0,&quot;rounded&quot;:0};" parent="q7yPuHwjgGvsOjUBlJRA-141" vertex="1">
          <mxGeometry x="46" y="2480" width="10" height="30" as="geometry" />
        </mxCell>
        <mxCell id="q7yPuHwjgGvsOjUBlJRA-158" value="" style="html=1;points=[[0,0,0,0,5],[0,1,0,0,-5],[1,0,0,0,5],[1,1,0,0,-5]];perimeter=orthogonalPerimeter;outlineConnect=0;targetShapes=umlLifeline;portConstraint=eastwest;newEdgeStyle={&quot;curved&quot;:0,&quot;rounded&quot;:0};" parent="q7yPuHwjgGvsOjUBlJRA-141" vertex="1">
          <mxGeometry x="46" y="2600" width="10" height="70" as="geometry" />
        </mxCell>
        <mxCell id="q7yPuHwjgGvsOjUBlJRA-159" value="ringBell()" style="html=1;align=left;spacingLeft=2;endArrow=block;rounded=0;edgeStyle=orthogonalEdgeStyle;curved=0;rounded=0;exitX=1;exitY=1;exitDx=0;exitDy=-5;exitPerimeter=0;" parent="q7yPuHwjgGvsOjUBlJRA-141" source="q7yPuHwjgGvsOjUBlJRA-158" edge="1">
          <mxGeometry x="0.379" relative="1" as="geometry">
            <mxPoint x="51" y="2610" as="sourcePoint" />
            <Array as="points">
              <mxPoint x="81" y="2605" />
              <mxPoint x="81" y="2640" />
            </Array>
            <mxPoint x="56" y="2640" as="targetPoint" />
            <mxPoint as="offset" />
          </mxGeometry>
        </mxCell>
        <mxCell id="q7yPuHwjgGvsOjUBlJRA-160" value="" style="html=1;points=[[0,0,0,0,5],[0,1,0,0,-5],[1,0,0,0,5],[1,1,0,0,-5]];perimeter=orthogonalPerimeter;outlineConnect=0;targetShapes=umlLifeline;portConstraint=eastwest;newEdgeStyle={&quot;curved&quot;:0,&quot;rounded&quot;:0};" parent="q7yPuHwjgGvsOjUBlJRA-141" vertex="1">
          <mxGeometry x="46" y="2680" width="10" height="80" as="geometry" />
        </mxCell>
        <mxCell id="q7yPuHwjgGvsOjUBlJRA-161" value="closeDoor()" style="html=1;align=left;spacingLeft=2;endArrow=block;rounded=0;edgeStyle=orthogonalEdgeStyle;curved=0;rounded=0;" parent="q7yPuHwjgGvsOjUBlJRA-141" target="q7yPuHwjgGvsOjUBlJRA-160" edge="1">
          <mxGeometry relative="1" as="geometry">
            <mxPoint x="56" y="2660" as="sourcePoint" />
            <Array as="points">
              <mxPoint x="81" y="2660" />
              <mxPoint x="81" y="2690" />
            </Array>
          </mxGeometry>
        </mxCell>
        <mxCell id="q7yPuHwjgGvsOjUBlJRA-162" style="edgeStyle=orthogonalEdgeStyle;rounded=0;orthogonalLoop=1;jettySize=auto;html=1;curved=0;elbow=horizontal;" parent="q7yPuHwjgGvsOjUBlJRA-141" source="q7yPuHwjgGvsOjUBlJRA-160" target="q7yPuHwjgGvsOjUBlJRA-160" edge="1">
          <mxGeometry relative="1" as="geometry">
            <Array as="points">
              <mxPoint x="81" y="2720" />
            </Array>
          </mxGeometry>
        </mxCell>
        <mxCell id="q7yPuHwjgGvsOjUBlJRA-163" value="ringBell()" style="edgeLabel;html=1;align=center;verticalAlign=middle;resizable=0;points=[];" parent="q7yPuHwjgGvsOjUBlJRA-162" vertex="1" connectable="0">
          <mxGeometry x="0.3458" relative="1" as="geometry">
            <mxPoint x="32" y="-10" as="offset" />
          </mxGeometry>
        </mxCell>
        <mxCell id="q7yPuHwjgGvsOjUBlJRA-164" style="edgeStyle=orthogonalEdgeStyle;rounded=0;orthogonalLoop=1;jettySize=auto;html=1;curved=0;entryX=0;entryY=0;entryDx=0;entryDy=5;entryPerimeter=0;" parent="1" source="q7yPuHwjgGvsOjUBlJRA-32" target="q7yPuHwjgGvsOjUBlJRA-66" edge="1">
          <mxGeometry relative="1" as="geometry">
            <mxPoint x="710" y="1095" as="sourcePoint" />
            <mxPoint x="796" y="1095" as="targetPoint" />
            <Array as="points">
              <mxPoint x="730" y="1095" />
              <mxPoint x="730" y="1095" />
            </Array>
          </mxGeometry>
        </mxCell>
        <mxCell id="q7yPuHwjgGvsOjUBlJRA-165" value="openDoor()" style="edgeLabel;html=1;align=center;verticalAlign=middle;resizable=0;points=[];" parent="q7yPuHwjgGvsOjUBlJRA-164" vertex="1" connectable="0">
          <mxGeometry x="0.0144" relative="1" as="geometry">
            <mxPoint as="offset" />
          </mxGeometry>
        </mxCell>
        <mxCell id="q7yPuHwjgGvsOjUBlJRA-166" value="openDoor()" style="html=1;verticalAlign=bottom;startArrow=none;endArrow=block;startSize=8;curved=0;rounded=0;entryX=0;entryY=0;entryDx=0;entryDy=5;exitX=1;exitY=1;exitDx=0;exitDy=-5;exitPerimeter=0;startFill=0;" parent="1" source="q7yPuHwjgGvsOjUBlJRA-136" edge="1">
          <mxGeometry relative="1" as="geometry">
            <mxPoint x="965" y="1845" as="sourcePoint" />
            <mxPoint x="1035" y="1855" as="targetPoint" />
          </mxGeometry>
        </mxCell>
        <mxCell id="q7yPuHwjgGvsOjUBlJRA-167" style="edgeStyle=orthogonalEdgeStyle;rounded=0;orthogonalLoop=1;jettySize=auto;html=1;curved=0;exitX=0;exitY=1;exitDx=0;exitDy=-5;exitPerimeter=0;" parent="1" target="q7yPuHwjgGvsOjUBlJRA-118" edge="1">
          <mxGeometry relative="1" as="geometry">
            <mxPoint x="670" y="1900" as="sourcePoint" />
            <mxPoint x="460" y="1900" as="targetPoint" />
            <Array as="points">
              <mxPoint x="670" y="1901" />
            </Array>
          </mxGeometry>
        </mxCell>
        <mxCell id="q7yPuHwjgGvsOjUBlJRA-168" value="enterElevator()" style="edgeLabel;html=1;align=center;verticalAlign=middle;resizable=0;points=[];" parent="q7yPuHwjgGvsOjUBlJRA-167" vertex="1" connectable="0">
          <mxGeometry x="0.1553" y="1" relative="1" as="geometry">
            <mxPoint x="13" y="-6" as="offset" />
          </mxGeometry>
        </mxCell>
        <mxCell id="q7yPuHwjgGvsOjUBlJRA-169" style="edgeStyle=orthogonalEdgeStyle;rounded=0;orthogonalLoop=1;jettySize=auto;html=1;curved=0;exitX=1;exitY=1;exitDx=0;exitDy=-5;exitPerimeter=0;entryX=0;entryY=0;entryDx=0;entryDy=5;entryPerimeter=0;" parent="1" source="q7yPuHwjgGvsOjUBlJRA-10" target="q7yPuHwjgGvsOjUBlJRA-119" edge="1">
          <mxGeometry relative="1" as="geometry" />
        </mxCell>
        <mxCell id="q7yPuHwjgGvsOjUBlJRA-170" value="pressFloorNumber(4)" style="edgeLabel;html=1;align=center;verticalAlign=middle;resizable=0;points=[];" parent="q7yPuHwjgGvsOjUBlJRA-169" vertex="1" connectable="0">
          <mxGeometry x="-0.1462" y="1" relative="1" as="geometry">
            <mxPoint x="1" y="-4" as="offset" />
          </mxGeometry>
        </mxCell>
        <mxCell id="q7yPuHwjgGvsOjUBlJRA-171" value="onFloor4ButtonClicked()" style="html=1;verticalAlign=bottom;endArrow=block;curved=0;rounded=0;" parent="1" target="q7yPuHwjgGvsOjUBlJRA-10" edge="1">
          <mxGeometry width="80" relative="1" as="geometry">
            <mxPoint x="-673" y="1940" as="sourcePoint" />
            <mxPoint x="-593" y="1940" as="targetPoint" />
          </mxGeometry>
        </mxCell>
        <mxCell id="q7yPuHwjgGvsOjUBlJRA-172" value="addCarRequest(4, elevator2)" style="html=1;verticalAlign=bottom;endArrow=block;curved=0;rounded=0;exitX=1;exitY=1;exitDx=0;exitDy=-5;exitPerimeter=0;" parent="1" source="q7yPuHwjgGvsOjUBlJRA-119" edge="1">
          <mxGeometry width="80" relative="1" as="geometry">
            <mxPoint x="540" y="2000" as="sourcePoint" />
            <mxPoint x="665" y="2005" as="targetPoint" />
          </mxGeometry>
        </mxCell>
        <mxCell id="q7yPuHwjgGvsOjUBlJRA-173" value="isDoorClosed()" style="html=1;verticalAlign=bottom;endArrow=block;curved=0;rounded=0;entryX=0;entryY=0;entryDx=0;entryDy=5;" parent="1" source="q7yPuHwjgGvsOjUBlJRA-40" target="q7yPuHwjgGvsOjUBlJRA-148" edge="1">
          <mxGeometry relative="1" as="geometry">
            <mxPoint x="850" y="2085" as="sourcePoint" />
          </mxGeometry>
        </mxCell>
        <mxCell id="q7yPuHwjgGvsOjUBlJRA-174" value="true" style="html=1;verticalAlign=bottom;endArrow=open;dashed=1;endSize=8;curved=0;rounded=0;exitX=0;exitY=1;exitDx=0;exitDy=-5;" parent="1" source="q7yPuHwjgGvsOjUBlJRA-148" target="q7yPuHwjgGvsOjUBlJRA-40" edge="1">
          <mxGeometry relative="1" as="geometry">
            <mxPoint x="850" y="2155" as="targetPoint" />
            <mxPoint as="offset" />
          </mxGeometry>
        </mxCell>
        <mxCell id="q7yPuHwjgGvsOjUBlJRA-175" style="edgeStyle=orthogonalEdgeStyle;rounded=0;orthogonalLoop=1;jettySize=auto;html=1;curved=0;entryX=0;entryY=0;entryDx=0;entryDy=5;entryPerimeter=0;" parent="1" source="q7yPuHwjgGvsOjUBlJRA-40" target="q7yPuHwjgGvsOjUBlJRA-149" edge="1">
          <mxGeometry relative="1" as="geometry">
            <mxPoint x="850" y="2225" as="sourcePoint" />
            <Array as="points">
              <mxPoint x="770" y="2225" />
              <mxPoint x="770" y="2225" />
            </Array>
          </mxGeometry>
        </mxCell>
        <mxCell id="q7yPuHwjgGvsOjUBlJRA-176" value="setStatus(Moving)" style="edgeLabel;html=1;align=center;verticalAlign=middle;resizable=0;points=[];" parent="q7yPuHwjgGvsOjUBlJRA-175" vertex="1" connectable="0">
          <mxGeometry x="-0.1469" relative="1" as="geometry">
            <mxPoint as="offset" />
          </mxGeometry>
        </mxCell>
        <mxCell id="q7yPuHwjgGvsOjUBlJRA-177" value="getFireAlarm()" style="html=1;verticalAlign=bottom;endArrow=block;curved=0;rounded=0;entryX=0;entryY=0;entryDx=0;entryDy=5;" parent="1" source="q7yPuHwjgGvsOjUBlJRA-40" target="q7yPuHwjgGvsOjUBlJRA-150" edge="1">
          <mxGeometry relative="1" as="geometry">
            <mxPoint x="850" y="2265" as="sourcePoint" />
          </mxGeometry>
        </mxCell>
        <mxCell id="q7yPuHwjgGvsOjUBlJRA-178" value="false" style="html=1;verticalAlign=bottom;endArrow=open;dashed=1;endSize=8;curved=0;rounded=0;exitX=0;exitY=1;exitDx=0;exitDy=-5;" parent="1" source="q7yPuHwjgGvsOjUBlJRA-150" target="q7yPuHwjgGvsOjUBlJRA-40" edge="1">
          <mxGeometry relative="1" as="geometry">
            <mxPoint x="850" y="2295" as="targetPoint" />
          </mxGeometry>
        </mxCell>
        <mxCell id="q7yPuHwjgGvsOjUBlJRA-179" value="getPowerout" style="html=1;verticalAlign=bottom;endArrow=block;curved=0;rounded=0;entryX=0;entryY=0;entryDx=0;entryDy=5;" parent="1" source="q7yPuHwjgGvsOjUBlJRA-40" target="q7yPuHwjgGvsOjUBlJRA-151" edge="1">
          <mxGeometry relative="1" as="geometry">
            <mxPoint x="850" y="2325" as="sourcePoint" />
          </mxGeometry>
        </mxCell>
        <mxCell id="q7yPuHwjgGvsOjUBlJRA-180" value="false" style="html=1;verticalAlign=bottom;endArrow=open;dashed=1;endSize=8;curved=0;rounded=0;exitX=0;exitY=1;exitDx=0;exitDy=-5;" parent="1" source="q7yPuHwjgGvsOjUBlJRA-151" target="q7yPuHwjgGvsOjUBlJRA-40" edge="1">
          <mxGeometry relative="1" as="geometry">
            <mxPoint x="850" y="2345" as="targetPoint" />
          </mxGeometry>
        </mxCell>
        <mxCell id="q7yPuHwjgGvsOjUBlJRA-181" value="setCurrentFloor(floor4)" style="edgeStyle=orthogonalEdgeStyle;rounded=0;orthogonalLoop=1;jettySize=auto;html=1;curved=0;entryX=0;entryY=0;entryDx=0;entryDy=5;entryPerimeter=0;" parent="1" source="q7yPuHwjgGvsOjUBlJRA-40" target="q7yPuHwjgGvsOjUBlJRA-152" edge="1">
          <mxGeometry relative="1" as="geometry">
            <mxPoint x="850" y="2375" as="sourcePoint" />
            <Array as="points">
              <mxPoint x="770" y="2375" />
              <mxPoint x="770" y="2375" />
            </Array>
          </mxGeometry>
        </mxCell>
        <mxCell id="q7yPuHwjgGvsOjUBlJRA-182" style="edgeStyle=orthogonalEdgeStyle;rounded=0;orthogonalLoop=1;jettySize=auto;html=1;curved=0;exitX=0;exitY=1;exitDx=0;exitDy=-5;exitPerimeter=0;" parent="1" source="q7yPuHwjgGvsOjUBlJRA-153" target="q7yPuHwjgGvsOjUBlJRA-117" edge="1">
          <mxGeometry relative="1" as="geometry">
            <mxPoint x="503" y="2465" as="targetPoint" />
            <Array as="points">
              <mxPoint x="590" y="2465" />
              <mxPoint x="590" y="2465" />
            </Array>
          </mxGeometry>
        </mxCell>
        <mxCell id="q7yPuHwjgGvsOjUBlJRA-183" value="updateCurrentFloor(floor4)" style="edgeLabel;html=1;align=center;verticalAlign=middle;resizable=0;points=[];" parent="q7yPuHwjgGvsOjUBlJRA-182" vertex="1" connectable="0">
          <mxGeometry x="0.0941" y="-2" relative="1" as="geometry">
            <mxPoint as="offset" />
          </mxGeometry>
        </mxCell>
        <mxCell id="q7yPuHwjgGvsOjUBlJRA-184" value="setCurrentFloor(floor4)" style="edgeStyle=orthogonalEdgeStyle;rounded=0;orthogonalLoop=1;jettySize=auto;html=1;curved=0;entryX=0;entryY=0;entryDx=0;entryDy=5;entryPerimeter=0;" parent="1" target="q7yPuHwjgGvsOjUBlJRA-155" edge="1">
          <mxGeometry x="-0.0006" relative="1" as="geometry">
            <mxPoint x="680" y="2505" as="sourcePoint" />
            <Array as="points">
              <mxPoint x="771" y="2505" />
              <mxPoint x="771" y="2505" />
            </Array>
            <mxPoint as="offset" />
          </mxGeometry>
        </mxCell>
        <mxCell id="q7yPuHwjgGvsOjUBlJRA-187" style="edgeStyle=orthogonalEdgeStyle;rounded=0;orthogonalLoop=1;jettySize=auto;html=1;curved=0;entryX=0;entryY=0;entryDx=0;entryDy=5;entryPerimeter=0;" parent="1" source="q7yPuHwjgGvsOjUBlJRA-40" target="q7yPuHwjgGvsOjUBlJRA-158" edge="1">
          <mxGeometry relative="1" as="geometry">
            <mxPoint x="850" y="2625" as="sourcePoint" />
            <mxPoint x="966" y="2625" as="targetPoint" />
            <Array as="points">
              <mxPoint x="780" y="2625" />
              <mxPoint x="780" y="2625" />
            </Array>
          </mxGeometry>
        </mxCell>
        <mxCell id="q7yPuHwjgGvsOjUBlJRA-188" value="openDoor()" style="edgeLabel;html=1;align=center;verticalAlign=middle;resizable=0;points=[];" parent="q7yPuHwjgGvsOjUBlJRA-187" vertex="1" connectable="0">
          <mxGeometry x="0.0144" relative="1" as="geometry">
            <mxPoint as="offset" />
          </mxGeometry>
        </mxCell>
        <mxCell id="q7yPuHwjgGvsOjUBlJRA-189" style="edgeStyle=orthogonalEdgeStyle;rounded=0;orthogonalLoop=1;jettySize=auto;html=1;curved=0;" parent="1" source="q7yPuHwjgGvsOjUBlJRA-25" target="q7yPuHwjgGvsOjUBlJRA-2" edge="1">
          <mxGeometry relative="1" as="geometry">
            <mxPoint x="670" y="2640" as="sourcePoint" />
            <mxPoint x="-290" y="2640" as="targetPoint" />
            <Array as="points">
              <mxPoint x="650" y="2660" />
              <mxPoint x="650" y="2660" />
            </Array>
          </mxGeometry>
        </mxCell>
        <mxCell id="q7yPuHwjgGvsOjUBlJRA-190" value="elevatorArrivedAtFloor(elevator2, floor4)" style="edgeLabel;html=1;align=center;verticalAlign=middle;resizable=0;points=[];" parent="q7yPuHwjgGvsOjUBlJRA-189" vertex="1" connectable="0">
          <mxGeometry x="0.2299" relative="1" as="geometry">
            <mxPoint as="offset" />
          </mxGeometry>
        </mxCell>
        <mxCell id="q7yPuHwjgGvsOjUBlJRA-191" style="edgeStyle=orthogonalEdgeStyle;rounded=0;orthogonalLoop=1;jettySize=auto;html=1;curved=0;exitX=0;exitY=1;exitDx=0;exitDy=-5;exitPerimeter=0;entryX=1;entryY=0;entryDx=0;entryDy=5;entryPerimeter=0;" parent="1" source="q7yPuHwjgGvsOjUBlJRA-43" target="q7yPuHwjgGvsOjUBlJRA-120" edge="1">
          <mxGeometry relative="1" as="geometry" />
        </mxCell>
        <mxCell id="q7yPuHwjgGvsOjUBlJRA-192" value="exitElevator()" style="edgeLabel;html=1;align=center;verticalAlign=middle;resizable=0;points=[];" parent="q7yPuHwjgGvsOjUBlJRA-191" vertex="1" connectable="0">
          <mxGeometry x="0.1695" y="-1" relative="1" as="geometry">
            <mxPoint as="offset" />
          </mxGeometry>
        </mxCell>
        <mxCell id="q7yPuHwjgGvsOjUBlJRA-193" value="4" style="html=1;verticalAlign=bottom;endArrow=open;dashed=1;endSize=8;curved=0;rounded=0;exitX=0;exitY=1;exitDx=0;exitDy=-5;exitPerimeter=0;" parent="1" source="q7yPuHwjgGvsOjUBlJRA-103" edge="1">
          <mxGeometry x="0.0031" relative="1" as="geometry">
            <mxPoint x="-555" y="2505" as="targetPoint" />
            <Array as="points" />
            <mxPoint as="offset" />
          </mxGeometry>
        </mxCell>
        <mxCell id="q7yPuHwjgGvsOjUBlJRA-194" value="getFloorNumber()" style="html=1;verticalAlign=bottom;endArrow=block;curved=0;rounded=0;entryX=0;entryY=0;entryDx=0;entryDy=5;" parent="1" target="q7yPuHwjgGvsOjUBlJRA-103" edge="1">
          <mxGeometry relative="1" as="geometry">
            <mxPoint x="-555" y="2475" as="sourcePoint" />
          </mxGeometry>
        </mxCell>
        <mxCell id="q7yPuHwjgGvsOjUBlJRA-197" value="onOkButtonClicked()" style="html=1;verticalAlign=bottom;endArrow=block;curved=0;rounded=0;" parent="1" edge="1">
          <mxGeometry width="80" relative="1" as="geometry">
            <mxPoint x="-671.9981818181816" y="3030" as="sourcePoint" />
            <mxPoint x="-562.6800000000001" y="3030" as="targetPoint" />
          </mxGeometry>
        </mxCell>
        <mxCell id="q7yPuHwjgGvsOjUBlJRA-198" value="getPassengerByID(3)" style="html=1;verticalAlign=bottom;endArrow=block;curved=0;rounded=0;" parent="1" edge="1">
          <mxGeometry width="80" relative="1" as="geometry">
            <mxPoint x="-555" y="3057.5" as="sourcePoint" />
            <mxPoint x="665" y="3057.5" as="targetPoint" />
          </mxGeometry>
        </mxCell>
        <mxCell id="q7yPuHwjgGvsOjUBlJRA-199" value="getFloorNumber()" style="html=1;verticalAlign=bottom;endArrow=block;curved=0;rounded=0;entryX=0;entryY=0;entryDx=0;entryDy=5;" parent="1" target="q7yPuHwjgGvsOjUBlJRA-98" edge="1">
          <mxGeometry relative="1" as="geometry">
            <mxPoint x="-554" y="3085" as="sourcePoint" />
          </mxGeometry>
        </mxCell>
        <mxCell id="q7yPuHwjgGvsOjUBlJRA-200" value="7" style="html=1;verticalAlign=bottom;endArrow=open;dashed=1;endSize=8;curved=0;rounded=0;exitX=0;exitY=1;exitDx=0;exitDy=-5;" parent="1" source="q7yPuHwjgGvsOjUBlJRA-98" edge="1">
          <mxGeometry relative="1" as="geometry">
            <mxPoint x="-554" y="3115" as="targetPoint" />
          </mxGeometry>
        </mxCell>
        <mxCell id="q7yPuHwjgGvsOjUBlJRA-201" value="onDownButtonClicked()" style="html=1;verticalAlign=bottom;startArrow=none;endArrow=block;startSize=8;curved=0;rounded=0;entryX=0;entryY=0;entryDx=0;entryDy=5;startFill=0;" parent="1" target="q7yPuHwjgGvsOjUBlJRA-13" edge="1">
          <mxGeometry relative="1" as="geometry">
            <mxPoint x="-673" y="3165" as="sourcePoint" />
          </mxGeometry>
        </mxCell>
        <mxCell id="q7yPuHwjgGvsOjUBlJRA-202" value="pressDIrection(DOWN)" style="html=1;verticalAlign=bottom;startArrow=none;endArrow=block;startSize=8;curved=0;rounded=0;entryX=0;entryY=0;entryDx=0;entryDy=5;startFill=0;" parent="1" source="q7yPuHwjgGvsOjUBlJRA-13" target="q7yPuHwjgGvsOjUBlJRA-125" edge="1">
          <mxGeometry relative="1" as="geometry">
            <mxPoint x="376" y="3185" as="sourcePoint" />
          </mxGeometry>
        </mxCell>
        <mxCell id="q7yPuHwjgGvsOjUBlJRA-203" value="addFloorRequest(floor7, DOWN)" style="html=1;verticalAlign=bottom;endArrow=block;curved=0;rounded=0;" parent="1" source="q7yPuHwjgGvsOjUBlJRA-13" edge="1">
          <mxGeometry width="80" relative="1" as="geometry">
            <mxPoint x="-289" y="3230" as="sourcePoint" />
            <mxPoint x="666" y="3230" as="targetPoint" />
          </mxGeometry>
        </mxCell>
        <mxCell id="q7yPuHwjgGvsOjUBlJRA-204" value="" style="html=1;points=[[0,0,0,0,5],[0,1,0,0,-5],[1,0,0,0,5],[1,1,0,0,-5]];perimeter=orthogonalPerimeter;outlineConnect=0;targetShapes=umlLifeline;portConstraint=eastwest;newEdgeStyle={&quot;curved&quot;:0,&quot;rounded&quot;:0};" parent="1" vertex="1">
          <mxGeometry x="670" y="3260" width="10" height="40" as="geometry" />
        </mxCell>
        <mxCell id="q7yPuHwjgGvsOjUBlJRA-205" value="moveIdle()" style="html=1;align=left;spacingLeft=2;endArrow=block;rounded=0;edgeStyle=orthogonalEdgeStyle;curved=0;rounded=0;" parent="1" target="q7yPuHwjgGvsOjUBlJRA-204" edge="1">
          <mxGeometry relative="1" as="geometry">
            <mxPoint x="677" y="3240" as="sourcePoint" />
            <Array as="points">
              <mxPoint x="707" y="3270" />
            </Array>
          </mxGeometry>
        </mxCell>
        <mxCell id="q7yPuHwjgGvsOjUBlJRA-206" value="" style="html=1;points=[[0,0,0,0,5],[0,1,0,0,-5],[1,0,0,0,5],[1,1,0,0,-5]];perimeter=orthogonalPerimeter;outlineConnect=0;targetShapes=umlLifeline;portConstraint=eastwest;newEdgeStyle={&quot;curved&quot;:0,&quot;rounded&quot;:0};" parent="1" vertex="1">
          <mxGeometry x="671" y="3320" width="10" height="70" as="geometry" />
        </mxCell>
        <mxCell id="q7yPuHwjgGvsOjUBlJRA-207" value="moveElevatorToFloor(elevator3, floor7)" style="html=1;align=left;spacingLeft=2;endArrow=block;rounded=0;edgeStyle=orthogonalEdgeStyle;curved=0;rounded=0;exitX=1;exitY=1;exitDx=0;exitDy=-5;exitPerimeter=0;" parent="1" source="q7yPuHwjgGvsOjUBlJRA-204" target="q7yPuHwjgGvsOjUBlJRA-206" edge="1">
          <mxGeometry x="0.0085" relative="1" as="geometry">
            <mxPoint x="672" y="3300" as="sourcePoint" />
            <Array as="points">
              <mxPoint x="702" y="3295" />
              <mxPoint x="702" y="3330" />
            </Array>
            <mxPoint as="offset" />
          </mxGeometry>
        </mxCell>
        <mxCell id="q7yPuHwjgGvsOjUBlJRA-208" value="" style="html=1;points=[[0,0,0,0,5],[0,1,0,0,-5],[1,0,0,0,5],[1,1,0,0,-5]];perimeter=orthogonalPerimeter;outlineConnect=0;targetShapes=umlLifeline;portConstraint=eastwest;newEdgeStyle={&quot;curved&quot;:0,&quot;rounded&quot;:0};" parent="1" vertex="1">
          <mxGeometry x="671" y="3400" width="10" height="40" as="geometry" />
        </mxCell>
        <mxCell id="q7yPuHwjgGvsOjUBlJRA-209" value="movePassenger()" style="html=1;align=left;spacingLeft=2;endArrow=block;rounded=0;edgeStyle=orthogonalEdgeStyle;curved=0;rounded=0;" parent="1" target="q7yPuHwjgGvsOjUBlJRA-208" edge="1">
          <mxGeometry relative="1" as="geometry">
            <mxPoint x="676" y="3390" as="sourcePoint" />
            <Array as="points">
              <mxPoint x="702" y="3390" />
              <mxPoint x="702" y="3420" />
            </Array>
          </mxGeometry>
        </mxCell>
        <mxCell id="q7yPuHwjgGvsOjUBlJRA-210" value="removeFloorRequest({floor7, DOWN})" style="html=1;align=left;spacingLeft=2;endArrow=block;rounded=0;edgeStyle=orthogonalEdgeStyle;curved=0;rounded=0;" parent="1" edge="1">
          <mxGeometry x="-0.0009" relative="1" as="geometry">
            <mxPoint x="682" y="3340" as="sourcePoint" />
            <Array as="points">
              <mxPoint x="707" y="3370" />
            </Array>
            <mxPoint x="682" y="3370" as="targetPoint" />
            <mxPoint as="offset" />
          </mxGeometry>
        </mxCell>
        <mxCell id="q7yPuHwjgGvsOjUBlJRA-211" value="openDoor()" style="html=1;verticalAlign=bottom;startArrow=none;endArrow=block;startSize=8;curved=0;rounded=0;exitX=1;exitY=1;exitDx=0;exitDy=-5;exitPerimeter=0;startFill=0;" parent="1" source="q7yPuHwjgGvsOjUBlJRA-206" target="q7yPuHwjgGvsOjUBlJRA-244" edge="1">
          <mxGeometry relative="1" as="geometry">
            <mxPoint x="966" y="3375" as="sourcePoint" />
            <mxPoint x="1036" y="3385" as="targetPoint" />
          </mxGeometry>
        </mxCell>
        <mxCell id="q7yPuHwjgGvsOjUBlJRA-212" style="edgeStyle=orthogonalEdgeStyle;rounded=0;orthogonalLoop=1;jettySize=auto;html=1;curved=0;exitX=0;exitY=1;exitDx=0;exitDy=-5;exitPerimeter=0;" parent="1" target="q7yPuHwjgGvsOjUBlJRA-123" edge="1">
          <mxGeometry relative="1" as="geometry">
            <mxPoint x="671" y="3430" as="sourcePoint" />
            <mxPoint x="461" y="3430" as="targetPoint" />
            <Array as="points">
              <mxPoint x="671" y="3431" />
            </Array>
          </mxGeometry>
        </mxCell>
        <mxCell id="q7yPuHwjgGvsOjUBlJRA-213" value="enterElevator()" style="edgeLabel;html=1;align=center;verticalAlign=middle;resizable=0;points=[];" parent="q7yPuHwjgGvsOjUBlJRA-212" vertex="1" connectable="0">
          <mxGeometry x="0.1553" y="1" relative="1" as="geometry">
            <mxPoint x="13" y="-6" as="offset" />
          </mxGeometry>
        </mxCell>
        <mxCell id="q7yPuHwjgGvsOjUBlJRA-214" style="edgeStyle=orthogonalEdgeStyle;rounded=0;orthogonalLoop=1;jettySize=auto;html=1;curved=0;exitX=1;exitY=1;exitDx=0;exitDy=-5;exitPerimeter=0;entryX=0;entryY=0;entryDx=0;entryDy=5;entryPerimeter=0;" parent="1" source="q7yPuHwjgGvsOjUBlJRA-15" target="q7yPuHwjgGvsOjUBlJRA-124" edge="1">
          <mxGeometry relative="1" as="geometry" />
        </mxCell>
        <mxCell id="q7yPuHwjgGvsOjUBlJRA-215" value="pressFloorNumber(6)" style="edgeLabel;html=1;align=center;verticalAlign=middle;resizable=0;points=[];" parent="q7yPuHwjgGvsOjUBlJRA-214" vertex="1" connectable="0">
          <mxGeometry x="-0.1462" y="1" relative="1" as="geometry">
            <mxPoint x="1" y="-4" as="offset" />
          </mxGeometry>
        </mxCell>
        <mxCell id="q7yPuHwjgGvsOjUBlJRA-216" value="onFloor6ButtonClicked()" style="html=1;verticalAlign=bottom;endArrow=block;curved=0;rounded=0;" parent="1" target="q7yPuHwjgGvsOjUBlJRA-15" edge="1">
          <mxGeometry x="0.0029" width="80" relative="1" as="geometry">
            <mxPoint x="-672" y="3470" as="sourcePoint" />
            <mxPoint x="-592" y="3470" as="targetPoint" />
            <mxPoint as="offset" />
          </mxGeometry>
        </mxCell>
        <mxCell id="q7yPuHwjgGvsOjUBlJRA-217" value="addCarRequest(6, elevator3)" style="html=1;verticalAlign=bottom;endArrow=block;curved=0;rounded=0;exitX=1;exitY=1;exitDx=0;exitDy=-5;exitPerimeter=0;" parent="1" source="q7yPuHwjgGvsOjUBlJRA-124" edge="1">
          <mxGeometry width="80" relative="1" as="geometry">
            <mxPoint x="541" y="3530" as="sourcePoint" />
            <mxPoint x="666" y="3535" as="targetPoint" />
          </mxGeometry>
        </mxCell>
        <mxCell id="q7yPuHwjgGvsOjUBlJRA-218" value="isDoorClosed()" style="html=1;verticalAlign=bottom;endArrow=block;curved=0;rounded=0;entryX=0;entryY=0;entryDx=0;entryDy=5;" parent="1" source="q7yPuHwjgGvsOjUBlJRA-46" target="q7yPuHwjgGvsOjUBlJRA-250" edge="1">
          <mxGeometry relative="1" as="geometry">
            <mxPoint x="851" y="3615" as="sourcePoint" />
          </mxGeometry>
        </mxCell>
        <mxCell id="q7yPuHwjgGvsOjUBlJRA-219" value="true" style="html=1;verticalAlign=bottom;endArrow=open;dashed=1;endSize=8;curved=0;rounded=0;exitX=0;exitY=1;exitDx=0;exitDy=-5;" parent="1" source="q7yPuHwjgGvsOjUBlJRA-250" target="q7yPuHwjgGvsOjUBlJRA-46" edge="1">
          <mxGeometry relative="1" as="geometry">
            <mxPoint x="851" y="3685" as="targetPoint" />
            <mxPoint as="offset" />
          </mxGeometry>
        </mxCell>
        <mxCell id="q7yPuHwjgGvsOjUBlJRA-220" style="edgeStyle=orthogonalEdgeStyle;rounded=0;orthogonalLoop=1;jettySize=auto;html=1;curved=0;entryX=0;entryY=0;entryDx=0;entryDy=5;entryPerimeter=0;" parent="1" source="q7yPuHwjgGvsOjUBlJRA-46" target="q7yPuHwjgGvsOjUBlJRA-251" edge="1">
          <mxGeometry relative="1" as="geometry">
            <mxPoint x="851" y="3755" as="sourcePoint" />
            <Array as="points">
              <mxPoint x="771" y="3755" />
              <mxPoint x="771" y="3755" />
            </Array>
          </mxGeometry>
        </mxCell>
        <mxCell id="q7yPuHwjgGvsOjUBlJRA-221" value="setStatus(Moving)" style="edgeLabel;html=1;align=center;verticalAlign=middle;resizable=0;points=[];" parent="q7yPuHwjgGvsOjUBlJRA-220" vertex="1" connectable="0">
          <mxGeometry x="-0.1469" relative="1" as="geometry">
            <mxPoint as="offset" />
          </mxGeometry>
        </mxCell>
        <mxCell id="q7yPuHwjgGvsOjUBlJRA-222" value="getFireAlarm()" style="html=1;verticalAlign=bottom;endArrow=block;curved=0;rounded=0;entryX=0;entryY=0;entryDx=0;entryDy=5;" parent="1" source="q7yPuHwjgGvsOjUBlJRA-46" target="q7yPuHwjgGvsOjUBlJRA-252" edge="1">
          <mxGeometry relative="1" as="geometry">
            <mxPoint x="851" y="3795" as="sourcePoint" />
          </mxGeometry>
        </mxCell>
        <mxCell id="q7yPuHwjgGvsOjUBlJRA-223" value="false" style="html=1;verticalAlign=bottom;endArrow=open;dashed=1;endSize=8;curved=0;rounded=0;exitX=0;exitY=1;exitDx=0;exitDy=-5;" parent="1" source="q7yPuHwjgGvsOjUBlJRA-252" target="q7yPuHwjgGvsOjUBlJRA-46" edge="1">
          <mxGeometry relative="1" as="geometry">
            <mxPoint x="851" y="3825" as="targetPoint" />
          </mxGeometry>
        </mxCell>
        <mxCell id="q7yPuHwjgGvsOjUBlJRA-224" value="getPowerout" style="html=1;verticalAlign=bottom;endArrow=block;curved=0;rounded=0;entryX=0;entryY=0;entryDx=0;entryDy=5;" parent="1" source="q7yPuHwjgGvsOjUBlJRA-46" target="q7yPuHwjgGvsOjUBlJRA-253" edge="1">
          <mxGeometry relative="1" as="geometry">
            <mxPoint x="851" y="3855" as="sourcePoint" />
          </mxGeometry>
        </mxCell>
        <mxCell id="q7yPuHwjgGvsOjUBlJRA-225" value="false" style="html=1;verticalAlign=bottom;endArrow=open;dashed=1;endSize=8;curved=0;rounded=0;exitX=0;exitY=1;exitDx=0;exitDy=-5;" parent="1" source="q7yPuHwjgGvsOjUBlJRA-253" target="q7yPuHwjgGvsOjUBlJRA-46" edge="1">
          <mxGeometry relative="1" as="geometry">
            <mxPoint x="851" y="3875" as="targetPoint" />
          </mxGeometry>
        </mxCell>
        <mxCell id="q7yPuHwjgGvsOjUBlJRA-226" value="setCurrentFloor(floor6)" style="edgeStyle=orthogonalEdgeStyle;rounded=0;orthogonalLoop=1;jettySize=auto;html=1;curved=0;entryX=0;entryY=0;entryDx=0;entryDy=5;entryPerimeter=0;" parent="1" source="q7yPuHwjgGvsOjUBlJRA-46" target="q7yPuHwjgGvsOjUBlJRA-254" edge="1">
          <mxGeometry relative="1" as="geometry">
            <mxPoint x="851" y="3905" as="sourcePoint" />
            <Array as="points">
              <mxPoint x="771" y="3905" />
              <mxPoint x="771" y="3905" />
            </Array>
          </mxGeometry>
        </mxCell>
        <mxCell id="q7yPuHwjgGvsOjUBlJRA-227" style="edgeStyle=orthogonalEdgeStyle;rounded=0;orthogonalLoop=1;jettySize=auto;html=1;curved=0;exitX=0;exitY=1;exitDx=0;exitDy=-5;exitPerimeter=0;" parent="1" source="q7yPuHwjgGvsOjUBlJRA-255" target="q7yPuHwjgGvsOjUBlJRA-121" edge="1">
          <mxGeometry relative="1" as="geometry">
            <mxPoint x="560" y="3995" as="targetPoint" />
            <Array as="points">
              <mxPoint x="700" y="3995" />
              <mxPoint x="700" y="3995" />
            </Array>
          </mxGeometry>
        </mxCell>
        <mxCell id="q7yPuHwjgGvsOjUBlJRA-228" value="updateCurrentFloor(floor6)" style="edgeLabel;html=1;align=center;verticalAlign=middle;resizable=0;points=[];" parent="q7yPuHwjgGvsOjUBlJRA-227" vertex="1" connectable="0">
          <mxGeometry x="0.0941" y="-2" relative="1" as="geometry">
            <mxPoint as="offset" />
          </mxGeometry>
        </mxCell>
        <mxCell id="q7yPuHwjgGvsOjUBlJRA-232" style="edgeStyle=orthogonalEdgeStyle;rounded=0;orthogonalLoop=1;jettySize=auto;html=1;curved=0;entryX=0;entryY=0;entryDx=0;entryDy=5;entryPerimeter=0;" parent="1" target="q7yPuHwjgGvsOjUBlJRA-260" edge="1">
          <mxGeometry relative="1" as="geometry">
            <mxPoint x="679.5" y="4114.999999999999" as="sourcePoint" />
            <mxPoint x="966.5" y="4115" as="targetPoint" />
            <Array as="points">
              <mxPoint x="780.5" y="4115" />
              <mxPoint x="780.5" y="4115" />
            </Array>
          </mxGeometry>
        </mxCell>
        <mxCell id="q7yPuHwjgGvsOjUBlJRA-233" value="openDoor()" style="edgeLabel;html=1;align=center;verticalAlign=middle;resizable=0;points=[];" parent="q7yPuHwjgGvsOjUBlJRA-232" vertex="1" connectable="0">
          <mxGeometry x="0.0144" relative="1" as="geometry">
            <mxPoint as="offset" />
          </mxGeometry>
        </mxCell>
        <mxCell id="q7yPuHwjgGvsOjUBlJRA-234" style="edgeStyle=orthogonalEdgeStyle;rounded=0;orthogonalLoop=1;jettySize=auto;html=1;curved=0;" parent="1" target="q7yPuHwjgGvsOjUBlJRA-2" edge="1">
          <mxGeometry relative="1" as="geometry">
            <mxPoint x="670.5" y="4100" as="sourcePoint" />
            <mxPoint x="-289.5" y="4100" as="targetPoint" />
            <Array as="points">
              <mxPoint x="-240" y="4101" />
              <mxPoint x="-240" y="4101" />
            </Array>
          </mxGeometry>
        </mxCell>
        <mxCell id="q7yPuHwjgGvsOjUBlJRA-235" value="elevatorArrivedAtFloor(elevator3, floor6)" style="edgeLabel;html=1;align=center;verticalAlign=middle;resizable=0;points=[];" parent="q7yPuHwjgGvsOjUBlJRA-234" vertex="1" connectable="0">
          <mxGeometry x="0.2299" relative="1" as="geometry">
            <mxPoint x="-260" as="offset" />
          </mxGeometry>
        </mxCell>
        <mxCell id="q7yPuHwjgGvsOjUBlJRA-236" value="6" style="html=1;verticalAlign=bottom;endArrow=open;dashed=1;endSize=8;curved=0;rounded=0;exitX=0;exitY=1;exitDx=0;exitDy=-5;exitPerimeter=0;" parent="1" source="q7yPuHwjgGvsOjUBlJRA-104" edge="1">
          <mxGeometry x="0.0031" relative="1" as="geometry">
            <mxPoint x="-554" y="4035" as="targetPoint" />
            <Array as="points" />
            <mxPoint as="offset" />
          </mxGeometry>
        </mxCell>
        <mxCell id="q7yPuHwjgGvsOjUBlJRA-237" value="getFloorNumber()" style="html=1;verticalAlign=bottom;endArrow=block;curved=0;rounded=0;" parent="1" target="q7yPuHwjgGvsOjUBlJRA-104" edge="1">
          <mxGeometry relative="1" as="geometry">
            <mxPoint x="-554" y="4005" as="sourcePoint" />
          </mxGeometry>
        </mxCell>
        <mxCell id="q7yPuHwjgGvsOjUBlJRA-240" value="Choose passenger 1" style="shape=note2;boundedLbl=1;whiteSpace=wrap;html=1;size=25;verticalAlign=top;align=center;" parent="1" vertex="1">
          <mxGeometry x="-860" y="80" width="120" height="60" as="geometry" />
        </mxCell>
        <mxCell id="q7yPuHwjgGvsOjUBlJRA-241" value="Choose passenger 2" style="shape=note2;boundedLbl=1;whiteSpace=wrap;html=1;size=25;verticalAlign=top;align=center;" parent="1" vertex="1">
          <mxGeometry x="-860" y="1460" width="120" height="60" as="geometry" />
        </mxCell>
        <mxCell id="q7yPuHwjgGvsOjUBlJRA-242" value="Choose passenger 3" style="shape=note2;boundedLbl=1;whiteSpace=wrap;html=1;size=25;verticalAlign=top;align=center;" parent="1" vertex="1">
          <mxGeometry x="-860" y="3010" width="120" height="60" as="geometry" />
        </mxCell>
        <mxCell id="q7yPuHwjgGvsOjUBlJRA-243" value="elevator3" style="shape=umlLifeline;perimeter=lifelinePerimeter;whiteSpace=wrap;html=1;container=1;dropTarget=0;collapsible=0;recursiveResize=0;outlineConnect=0;portConstraint=eastwest;newEdgeStyle={&quot;curved&quot;:0,&quot;rounded&quot;:0};" parent="1" vertex="1">
          <mxGeometry x="1140" y="20" width="100" height="4640" as="geometry" />
        </mxCell>
        <mxCell id="q7yPuHwjgGvsOjUBlJRA-244" value="" style="html=1;points=[[0,0,0,0,5],[0,1,0,0,-5],[1,0,0,0,5],[1,1,0,0,-5]];perimeter=orthogonalPerimeter;outlineConnect=0;targetShapes=umlLifeline;portConstraint=eastwest;newEdgeStyle={&quot;curved&quot;:0,&quot;rounded&quot;:0};" parent="q7yPuHwjgGvsOjUBlJRA-243" vertex="1">
          <mxGeometry x="50" y="3360" width="10" height="70" as="geometry" />
        </mxCell>
        <mxCell id="q7yPuHwjgGvsOjUBlJRA-245" value="ringBell()" style="html=1;align=left;spacingLeft=2;endArrow=block;rounded=0;edgeStyle=orthogonalEdgeStyle;curved=0;rounded=0;exitX=1;exitY=1;exitDx=0;exitDy=-5;exitPerimeter=0;" parent="q7yPuHwjgGvsOjUBlJRA-243" source="q7yPuHwjgGvsOjUBlJRA-244" target="q7yPuHwjgGvsOjUBlJRA-244" edge="1">
          <mxGeometry x="0.379" relative="1" as="geometry">
            <mxPoint x="-100" y="3370" as="sourcePoint" />
            <Array as="points">
              <mxPoint x="60" y="3365" />
              <mxPoint x="110" y="3365" />
              <mxPoint x="110" y="3400" />
            </Array>
            <mxPoint x="-95" y="3400" as="targetPoint" />
            <mxPoint as="offset" />
          </mxGeometry>
        </mxCell>
        <mxCell id="q7yPuHwjgGvsOjUBlJRA-246" value="" style="html=1;points=[[0,0,0,0,5],[0,1,0,0,-5],[1,0,0,0,5],[1,1,0,0,-5]];perimeter=orthogonalPerimeter;outlineConnect=0;targetShapes=umlLifeline;portConstraint=eastwest;newEdgeStyle={&quot;curved&quot;:0,&quot;rounded&quot;:0};" parent="q7yPuHwjgGvsOjUBlJRA-243" vertex="1">
          <mxGeometry x="50" y="3440" width="10" height="80" as="geometry" />
        </mxCell>
        <mxCell id="q7yPuHwjgGvsOjUBlJRA-247" value="closeDoor()" style="html=1;align=left;spacingLeft=2;endArrow=block;rounded=0;edgeStyle=orthogonalEdgeStyle;curved=0;rounded=0;" parent="q7yPuHwjgGvsOjUBlJRA-243" target="q7yPuHwjgGvsOjUBlJRA-246" edge="1">
          <mxGeometry relative="1" as="geometry">
            <mxPoint x="60" y="3420" as="sourcePoint" />
            <Array as="points">
              <mxPoint x="85" y="3420" />
              <mxPoint x="85" y="3450" />
            </Array>
          </mxGeometry>
        </mxCell>
        <mxCell id="q7yPuHwjgGvsOjUBlJRA-248" style="edgeStyle=orthogonalEdgeStyle;rounded=0;orthogonalLoop=1;jettySize=auto;html=1;curved=0;elbow=horizontal;" parent="q7yPuHwjgGvsOjUBlJRA-243" source="q7yPuHwjgGvsOjUBlJRA-246" target="q7yPuHwjgGvsOjUBlJRA-246" edge="1">
          <mxGeometry relative="1" as="geometry">
            <Array as="points">
              <mxPoint x="85" y="3480" />
            </Array>
          </mxGeometry>
        </mxCell>
        <mxCell id="q7yPuHwjgGvsOjUBlJRA-249" value="ringBell()" style="edgeLabel;html=1;align=center;verticalAlign=middle;resizable=0;points=[];" parent="q7yPuHwjgGvsOjUBlJRA-248" vertex="1" connectable="0">
          <mxGeometry x="0.3458" relative="1" as="geometry">
            <mxPoint x="32" y="-10" as="offset" />
          </mxGeometry>
        </mxCell>
        <mxCell id="q7yPuHwjgGvsOjUBlJRA-250" value="" style="html=1;points=[[0,0,0,0,5],[0,1,0,0,-5],[1,0,0,0,5],[1,1,0,0,-5]];perimeter=orthogonalPerimeter;outlineConnect=0;targetShapes=umlLifeline;portConstraint=eastwest;newEdgeStyle={&quot;curved&quot;:0,&quot;rounded&quot;:0};" parent="q7yPuHwjgGvsOjUBlJRA-243" vertex="1">
          <mxGeometry x="45" y="3590" width="10" height="80" as="geometry" />
        </mxCell>
        <mxCell id="q7yPuHwjgGvsOjUBlJRA-251" value="" style="html=1;points=[[0,0,0,0,5],[0,1,0,0,-5],[1,0,0,0,5],[1,1,0,0,-5]];perimeter=orthogonalPerimeter;outlineConnect=0;targetShapes=umlLifeline;portConstraint=eastwest;newEdgeStyle={&quot;curved&quot;:0,&quot;rounded&quot;:0};" parent="q7yPuHwjgGvsOjUBlJRA-243" vertex="1">
          <mxGeometry x="45" y="3730" width="10" height="20" as="geometry" />
        </mxCell>
        <mxCell id="q7yPuHwjgGvsOjUBlJRA-252" value="" style="html=1;points=[[0,0,0,0,5],[0,1,0,0,-5],[1,0,0,0,5],[1,1,0,0,-5]];perimeter=orthogonalPerimeter;outlineConnect=0;targetShapes=umlLifeline;portConstraint=eastwest;newEdgeStyle={&quot;curved&quot;:0,&quot;rounded&quot;:0};" parent="q7yPuHwjgGvsOjUBlJRA-243" vertex="1">
          <mxGeometry x="45" y="3770" width="10" height="40" as="geometry" />
        </mxCell>
        <mxCell id="q7yPuHwjgGvsOjUBlJRA-253" value="" style="html=1;points=[[0,0,0,0,5],[0,1,0,0,-5],[1,0,0,0,5],[1,1,0,0,-5]];perimeter=orthogonalPerimeter;outlineConnect=0;targetShapes=umlLifeline;portConstraint=eastwest;newEdgeStyle={&quot;curved&quot;:0,&quot;rounded&quot;:0};" parent="q7yPuHwjgGvsOjUBlJRA-243" vertex="1">
          <mxGeometry x="45" y="3830" width="10" height="30" as="geometry" />
        </mxCell>
        <mxCell id="q7yPuHwjgGvsOjUBlJRA-254" value="" style="html=1;points=[[0,0,0,0,5],[0,1,0,0,-5],[1,0,0,0,5],[1,1,0,0,-5]];perimeter=orthogonalPerimeter;outlineConnect=0;targetShapes=umlLifeline;portConstraint=eastwest;newEdgeStyle={&quot;curved&quot;:0,&quot;rounded&quot;:0};" parent="q7yPuHwjgGvsOjUBlJRA-243" vertex="1">
          <mxGeometry x="45" y="3880" width="10" height="30" as="geometry" />
        </mxCell>
        <mxCell id="q7yPuHwjgGvsOjUBlJRA-255" value="" style="html=1;points=[[0,0,0,0,5],[0,1,0,0,-5],[1,0,0,0,5],[1,1,0,0,-5]];perimeter=orthogonalPerimeter;outlineConnect=0;targetShapes=umlLifeline;portConstraint=eastwest;newEdgeStyle={&quot;curved&quot;:0,&quot;rounded&quot;:0};" parent="q7yPuHwjgGvsOjUBlJRA-243" vertex="1">
          <mxGeometry x="45" y="3940" width="10" height="40" as="geometry" />
        </mxCell>
        <mxCell id="q7yPuHwjgGvsOjUBlJRA-256" value="currentFloorChanged(floor6)" style="html=1;align=left;spacingLeft=2;endArrow=block;rounded=0;edgeStyle=orthogonalEdgeStyle;curved=0;rounded=0;" parent="q7yPuHwjgGvsOjUBlJRA-243" target="q7yPuHwjgGvsOjUBlJRA-255" edge="1">
          <mxGeometry relative="1" as="geometry">
            <mxPoint x="50" y="3920" as="sourcePoint" />
            <Array as="points">
              <mxPoint x="80" y="3950" />
            </Array>
          </mxGeometry>
        </mxCell>
        <mxCell id="q7yPuHwjgGvsOjUBlJRA-260" value="" style="html=1;points=[[0,0,0,0,5],[0,1,0,0,-5],[1,0,0,0,5],[1,1,0,0,-5]];perimeter=orthogonalPerimeter;outlineConnect=0;targetShapes=umlLifeline;portConstraint=eastwest;newEdgeStyle={&quot;curved&quot;:0,&quot;rounded&quot;:0};" parent="q7yPuHwjgGvsOjUBlJRA-243" vertex="1">
          <mxGeometry x="44.5" y="4090" width="10" height="70" as="geometry" />
        </mxCell>
        <mxCell id="q7yPuHwjgGvsOjUBlJRA-261" value="ringBell()" style="html=1;align=left;spacingLeft=2;endArrow=block;rounded=0;edgeStyle=orthogonalEdgeStyle;curved=0;rounded=0;exitX=1;exitY=1;exitDx=0;exitDy=-5;exitPerimeter=0;" parent="q7yPuHwjgGvsOjUBlJRA-243" source="q7yPuHwjgGvsOjUBlJRA-260" edge="1">
          <mxGeometry x="0.379" relative="1" as="geometry">
            <mxPoint x="49.5" y="4100" as="sourcePoint" />
            <Array as="points">
              <mxPoint x="79.5" y="4095" />
              <mxPoint x="79.5" y="4130" />
            </Array>
            <mxPoint x="54.5" y="4130" as="targetPoint" />
            <mxPoint as="offset" />
          </mxGeometry>
        </mxCell>
        <mxCell id="q7yPuHwjgGvsOjUBlJRA-262" value="" style="html=1;points=[[0,0,0,0,5],[0,1,0,0,-5],[1,0,0,0,5],[1,1,0,0,-5]];perimeter=orthogonalPerimeter;outlineConnect=0;targetShapes=umlLifeline;portConstraint=eastwest;newEdgeStyle={&quot;curved&quot;:0,&quot;rounded&quot;:0};" parent="q7yPuHwjgGvsOjUBlJRA-243" vertex="1">
          <mxGeometry x="44.5" y="4170" width="10" height="80" as="geometry" />
        </mxCell>
        <mxCell id="q7yPuHwjgGvsOjUBlJRA-263" value="closeDoor()" style="html=1;align=left;spacingLeft=2;endArrow=block;rounded=0;edgeStyle=orthogonalEdgeStyle;curved=0;rounded=0;" parent="q7yPuHwjgGvsOjUBlJRA-243" target="q7yPuHwjgGvsOjUBlJRA-262" edge="1">
          <mxGeometry relative="1" as="geometry">
            <mxPoint x="54.5" y="4150" as="sourcePoint" />
            <Array as="points">
              <mxPoint x="79.5" y="4150" />
              <mxPoint x="79.5" y="4180" />
            </Array>
          </mxGeometry>
        </mxCell>
        <mxCell id="q7yPuHwjgGvsOjUBlJRA-264" style="edgeStyle=orthogonalEdgeStyle;rounded=0;orthogonalLoop=1;jettySize=auto;html=1;curved=0;elbow=horizontal;" parent="q7yPuHwjgGvsOjUBlJRA-243" source="q7yPuHwjgGvsOjUBlJRA-262" target="q7yPuHwjgGvsOjUBlJRA-262" edge="1">
          <mxGeometry relative="1" as="geometry">
            <Array as="points">
              <mxPoint x="79.5" y="4210" />
            </Array>
          </mxGeometry>
        </mxCell>
        <mxCell id="q7yPuHwjgGvsOjUBlJRA-265" value="ringBell()" style="edgeLabel;html=1;align=center;verticalAlign=middle;resizable=0;points=[];" parent="q7yPuHwjgGvsOjUBlJRA-264" vertex="1" connectable="0">
          <mxGeometry x="0.3458" relative="1" as="geometry">
            <mxPoint x="32" y="-10" as="offset" />
          </mxGeometry>
        </mxCell>
        <mxCell id="q7yPuHwjgGvsOjUBlJRA-274" style="edgeStyle=orthogonalEdgeStyle;rounded=0;orthogonalLoop=1;jettySize=auto;html=1;curved=0;exitX=0;exitY=1;exitDx=0;exitDy=-5;exitPerimeter=0;entryX=1;entryY=0;entryDx=0;entryDy=5;entryPerimeter=0;" parent="1" source="q7yPuHwjgGvsOjUBlJRA-49" target="q7yPuHwjgGvsOjUBlJRA-126" edge="1">
          <mxGeometry relative="1" as="geometry" />
        </mxCell>
        <mxCell id="q7yPuHwjgGvsOjUBlJRA-275" value="exitElevator()" style="edgeLabel;html=1;align=center;verticalAlign=middle;resizable=0;points=[];" parent="q7yPuHwjgGvsOjUBlJRA-274" vertex="1" connectable="0">
          <mxGeometry x="0.1695" y="-1" relative="1" as="geometry">
            <mxPoint as="offset" />
          </mxGeometry>
        </mxCell>
        <mxCell id="q7yPuHwjgGvsOjUBlJRA-276" value="floor6" style="shape=umlLifeline;perimeter=lifelinePerimeter;whiteSpace=wrap;html=1;container=1;dropTarget=0;collapsible=0;recursiveResize=0;outlineConnect=0;portConstraint=eastwest;newEdgeStyle={&quot;curved&quot;:0,&quot;rounded&quot;:0};" parent="1" vertex="1">
          <mxGeometry x="30" y="20" width="100" height="4620" as="geometry" />
        </mxCell>
        <mxCell id="q7yPuHwjgGvsOjUBlJRA-104" value="" style="html=1;points=[[0,0,0,0,5],[0,1,0,0,-5],[1,0,0,0,5],[1,1,0,0,-5]];perimeter=orthogonalPerimeter;outlineConnect=0;targetShapes=umlLifeline;portConstraint=eastwest;newEdgeStyle={&quot;curved&quot;:0,&quot;rounded&quot;:0};" parent="q7yPuHwjgGvsOjUBlJRA-276" vertex="1">
          <mxGeometry x="45" y="3970" width="10" height="50" as="geometry" />
        </mxCell>
        <mxCell id="q7yPuHwjgGvsOjUBlJRA-277" value="floor7" style="shape=umlLifeline;perimeter=lifelinePerimeter;whiteSpace=wrap;html=1;container=1;dropTarget=0;collapsible=0;recursiveResize=0;outlineConnect=0;portConstraint=eastwest;newEdgeStyle={&quot;curved&quot;:0,&quot;rounded&quot;:0};" parent="1" vertex="1">
          <mxGeometry x="150" y="20" width="100" height="4590" as="geometry" />
        </mxCell>
        <mxCell id="q7yPuHwjgGvsOjUBlJRA-98" value="" style="html=1;points=[[0,0,0,0,5],[0,1,0,0,-5],[1,0,0,0,5],[1,1,0,0,-5]];perimeter=orthogonalPerimeter;outlineConnect=0;targetShapes=umlLifeline;portConstraint=eastwest;newEdgeStyle={&quot;curved&quot;:0,&quot;rounded&quot;:0};" parent="q7yPuHwjgGvsOjUBlJRA-277" vertex="1">
          <mxGeometry x="45" y="3060" width="10" height="40" as="geometry" />
        </mxCell>
      </root>
    </mxGraphModel>
  </diagram>
</mxfile>
